<svg width="342" height="229" viewBox="0 0 342 229" fill="none" xmlns="http://www.w3.org/2000/svg">
<path fill-rule="evenodd" clip-rule="evenodd" d="M33.0884 109.691L40.8261 130.912L65.2791 135.53L81.9944 118.927L74.2566 97.7067L49.8464 93.1267L33.0884 109.691ZM44.9729 102.401L40.5269 120.721L58.7811 130.034L74.5131 117.439L66.0059 100.378L44.9729 102.401Z" fill="white"/>
<path d="M91.1004 103.584H102.728C104.951 103.584 106.704 104.08 107.987 105.073C109.269 106.065 109.868 107.515 109.868 109.386C109.868 110.34 109.611 111.218 109.141 111.981C108.628 112.744 107.944 113.355 107.089 113.775C108.286 114.156 109.141 114.729 109.739 115.53C110.338 116.294 110.637 117.324 110.637 118.546C110.637 119.805 110.295 120.912 109.654 121.866C109.013 122.782 108.158 123.507 107.003 124.003C105.892 124.5 104.652 124.729 103.284 124.729H91.0576V103.584H91.1004ZM101.788 112.172C102.686 112.172 103.412 111.981 103.925 111.561C104.438 111.141 104.695 110.492 104.695 109.615C104.695 108.66 104.438 107.973 103.925 107.63C103.412 107.248 102.643 107.096 101.617 107.096H96.2731V112.172H101.788ZM102.087 121.217C103.199 121.217 104.054 121.026 104.609 120.645C105.208 120.225 105.507 119.538 105.507 118.546C105.507 117.553 105.208 116.79 104.609 116.37C104.011 115.912 103.156 115.721 101.959 115.721H96.3159V121.217H102.087Z" fill="white"/>
<path d="M113.544 103.584H118.717V120.912H129.575V124.767H113.544V103.584Z" fill="white"/>
<path d="M141.93 125.187C139.536 125.187 137.399 124.729 135.432 123.775C133.508 122.859 132.012 121.561 130.901 119.882C129.789 118.202 129.233 116.294 129.233 114.118C129.233 111.943 129.789 110.035 130.901 108.355C132.012 106.676 133.508 105.378 135.432 104.462C137.399 103.546 139.536 103.05 141.93 103.05C144.324 103.05 146.462 103.508 148.343 104.462C150.266 105.378 151.763 106.676 152.874 108.355C153.986 110.035 154.541 111.943 154.541 114.118C154.541 116.294 153.986 118.202 152.874 119.882C151.763 121.523 150.266 122.82 148.343 123.775C146.462 124.729 144.324 125.187 141.93 125.187ZM141.93 120.95C143.298 120.95 144.538 120.683 145.649 120.149C146.761 119.576 147.659 118.813 148.343 117.782C148.984 116.752 149.326 115.569 149.326 114.195C149.326 112.859 148.984 111.676 148.343 110.645C147.701 109.615 146.846 108.813 145.692 108.279C144.581 107.706 143.341 107.439 141.973 107.439C140.562 107.439 139.322 107.706 138.168 108.279C137.057 108.813 136.159 109.615 135.518 110.645C134.876 111.638 134.534 112.821 134.534 114.195C134.534 115.569 134.876 116.752 135.518 117.782C136.159 118.775 137.057 119.576 138.211 120.149C139.322 120.683 140.562 120.95 141.93 120.95Z" fill="white"/>
<path d="M169.033 125.187C166.511 125.187 164.246 124.729 162.322 123.851C160.355 122.935 158.859 121.675 157.79 119.996C156.722 118.355 156.208 116.408 156.208 114.156C156.208 111.905 156.722 109.958 157.79 108.317C158.859 106.638 160.355 105.34 162.322 104.462C164.288 103.546 166.511 103.088 169.033 103.088C172.325 103.088 175.061 103.737 177.242 105.073V109.424C176.258 108.66 175.104 108.126 173.822 107.821C172.539 107.477 171.085 107.325 169.461 107.325C166.981 107.325 165.058 107.935 163.604 109.157C162.194 110.378 161.467 112.019 161.467 114.118C161.467 116.256 162.193 117.897 163.647 119.156C165.1 120.378 167.024 120.988 169.504 120.988C171.171 120.988 172.667 120.836 173.95 120.492C175.232 120.11 176.429 119.538 177.541 118.775V123.126C175.446 124.5 172.624 125.187 169.033 125.187Z" fill="white"/>
<path d="M180.448 103.584H185.621V112.782L194.598 103.584H200.754L190.708 113.927L201.438 124.767H195.282L185.663 115.034V124.767H180.491V103.584H180.448Z" fill="white"/>
<path d="M210.159 125.187C208.706 125.187 207.295 125.072 205.841 124.805C204.431 124.576 203.234 124.232 202.336 123.851V119.805C203.533 120.339 204.773 120.721 206.055 120.988C207.338 121.255 208.577 121.37 209.774 121.37C211.1 121.37 212.083 121.179 212.767 120.759C213.451 120.339 213.793 119.805 213.793 119.08C213.793 118.546 213.622 118.126 213.28 117.744C212.938 117.362 212.425 117.057 211.784 116.79C211.142 116.485 210.159 116.103 208.834 115.607C206.611 114.805 205.029 113.889 204.003 112.897C203.02 111.905 202.507 110.645 202.507 109.157C202.507 107.973 202.849 106.905 203.576 105.989C204.302 105.073 205.328 104.348 206.611 103.851C207.936 103.355 209.432 103.088 211.142 103.088C212.553 103.088 213.793 103.203 214.862 103.393C215.93 103.584 216.999 103.89 218.068 104.348V108.279C216.059 107.401 214.092 106.943 212.083 106.943C210.8 106.943 209.817 107.134 209.09 107.554C208.364 107.935 208.022 108.508 208.022 109.233C208.022 109.767 208.193 110.187 208.535 110.531C208.877 110.874 209.347 111.179 209.945 111.447C210.544 111.714 211.57 112.095 212.938 112.592C214.562 113.202 215.802 113.775 216.7 114.347C217.598 114.882 218.282 115.53 218.709 116.332C219.137 117.095 219.35 118.011 219.35 119.118C219.35 121.026 218.581 122.515 216.999 123.584C215.546 124.652 213.237 125.187 210.159 125.187Z" fill="white"/>
<path d="M222.3 103.584H232.261C234.954 103.584 237.091 104.233 238.716 105.493C240.34 106.752 241.11 108.508 241.11 110.721C241.11 113.011 240.298 114.805 238.716 116.027C237.134 117.248 234.997 117.859 232.261 117.859H227.43V124.729H222.3V103.584ZM231.534 114.042C234.441 114.042 235.894 112.935 235.894 110.721C235.894 109.5 235.51 108.622 234.697 108.164C233.928 107.668 232.859 107.439 231.491 107.439H227.43V114.042H231.534Z" fill="white"/>
<path d="M255.046 125.187C252.652 125.187 250.515 124.729 248.548 123.775C246.625 122.859 245.128 121.561 244.017 119.882C242.905 118.202 242.35 116.294 242.35 114.118C242.35 111.943 242.905 110.035 244.017 108.355C245.128 106.676 246.625 105.378 248.548 104.462C250.515 103.546 252.652 103.05 255.046 103.05C257.44 103.05 259.578 103.508 261.459 104.462C263.383 105.378 264.879 106.676 265.99 108.355C267.102 110.035 267.658 111.943 267.658 114.118C267.658 116.294 267.102 118.202 265.99 119.882C264.879 121.523 263.383 122.82 261.459 123.775C259.535 124.729 257.398 125.187 255.046 125.187ZM255.046 120.95C256.414 120.95 257.654 120.683 258.766 120.149C259.877 119.576 260.775 118.813 261.459 117.782C262.1 116.752 262.442 115.569 262.442 114.195C262.442 112.859 262.1 111.676 261.459 110.645C260.818 109.615 259.963 108.813 258.808 108.279C257.697 107.706 256.457 107.439 255.089 107.439C253.678 107.439 252.439 107.706 251.284 108.279C250.173 108.813 249.275 109.615 248.634 110.645C247.993 111.638 247.651 112.821 247.651 114.195C247.651 115.569 247.993 116.752 248.634 117.782C249.275 118.775 250.173 119.576 251.327 120.149C252.396 120.683 253.678 120.95 255.046 120.95Z" fill="white"/>
<path d="M270.479 103.584H280.739C283.433 103.584 285.527 104.195 287.024 105.416C288.52 106.599 289.289 108.317 289.289 110.607C289.289 112.172 288.862 113.508 288.05 114.653C287.237 115.759 286.083 116.523 284.587 117.057L289.118 124.805H283.86L279.671 117.63H275.652V124.805H270.479V103.584ZM279.884 113.737C281.21 113.737 282.236 113.469 282.962 112.973C283.732 112.477 284.117 111.676 284.117 110.569C284.117 109.424 283.732 108.622 283.005 108.126C282.278 107.63 281.21 107.401 279.884 107.401H275.695V113.737H279.884Z" fill="white"/>
<path d="M296.685 107.439H289.759V103.584H308.783V107.439H301.815V124.767H296.685V107.439Z" fill="white"/>
</svg>
