<svg width="1253" height="811" viewBox="0 0 1253 811" fill="none" xmlns="http://www.w3.org/2000/svg">
<path d="M1011.41 124.124H1004.57V121.364H1011.41C1012.73 121.364 1013.81 121.153 1014.63 120.731C1015.45 120.309 1016.04 119.723 1016.42 118.973C1016.81 118.223 1017 117.368 1017 116.407C1017 115.528 1016.81 114.702 1016.42 113.928C1016.04 113.155 1015.45 112.534 1014.63 112.065C1013.81 111.584 1012.73 111.344 1011.41 111.344H1005.36V134.161H1001.97V108.567H1011.41C1013.34 108.567 1014.98 108.901 1016.31 109.569C1017.65 110.237 1018.66 111.163 1019.36 112.346C1020.05 113.518 1020.39 114.86 1020.39 116.372C1020.39 118.012 1020.05 119.413 1019.36 120.573C1018.66 121.733 1017.65 122.618 1016.31 123.227C1014.98 123.825 1013.34 124.124 1011.41 124.124ZM1027.44 118.129V134.161H1024.19V115.141H1027.35L1027.44 118.129ZM1033.38 115.036L1033.37 118.059C1033.1 118 1032.84 117.965 1032.59 117.954C1032.36 117.93 1032.09 117.918 1031.78 117.918C1031.03 117.918 1030.37 118.036 1029.8 118.27C1029.22 118.504 1028.74 118.833 1028.34 119.254C1027.94 119.676 1027.62 120.18 1027.39 120.766C1027.17 121.34 1027.02 121.973 1026.95 122.665L1026.04 123.192C1026.04 122.043 1026.15 120.965 1026.37 119.958C1026.6 118.95 1026.96 118.059 1027.44 117.286C1027.92 116.5 1028.53 115.891 1029.27 115.458C1030.02 115.012 1030.91 114.79 1031.94 114.79C1032.18 114.79 1032.45 114.819 1032.75 114.877C1033.05 114.924 1033.27 114.977 1033.38 115.036ZM1035.18 124.862V124.458C1035.18 123.086 1035.38 121.815 1035.77 120.643C1036.17 119.459 1036.75 118.434 1037.5 117.567C1038.25 116.688 1039.15 116.008 1040.22 115.528C1041.29 115.036 1042.48 114.79 1043.81 114.79C1045.14 114.79 1046.34 115.036 1047.41 115.528C1048.49 116.008 1049.4 116.688 1050.15 117.567C1050.91 118.434 1051.49 119.459 1051.89 120.643C1052.29 121.815 1052.49 123.086 1052.49 124.458V124.862C1052.49 126.233 1052.29 127.504 1051.89 128.676C1051.49 129.848 1050.91 130.874 1050.15 131.752C1049.4 132.62 1048.49 133.299 1047.43 133.792C1046.37 134.272 1045.18 134.512 1043.84 134.512C1042.51 134.512 1041.3 134.272 1040.24 133.792C1039.17 133.299 1038.26 132.62 1037.5 131.752C1036.75 130.874 1036.17 129.848 1035.77 128.676C1035.38 127.504 1035.18 126.233 1035.18 124.862ZM1038.43 124.458V124.862C1038.43 125.811 1038.54 126.708 1038.76 127.551C1038.98 128.383 1039.32 129.122 1039.76 129.766C1040.22 130.411 1040.79 130.92 1041.47 131.295C1042.15 131.659 1042.94 131.84 1043.84 131.84C1044.73 131.84 1045.51 131.659 1046.18 131.295C1046.86 130.92 1047.42 130.411 1047.87 129.766C1048.31 129.122 1048.65 128.383 1048.87 127.551C1049.1 126.708 1049.22 125.811 1049.22 124.862V124.458C1049.22 123.52 1049.1 122.635 1048.87 121.803C1048.65 120.959 1048.31 120.215 1047.85 119.571C1047.4 118.915 1046.84 118.399 1046.16 118.024C1045.49 117.649 1044.71 117.461 1043.81 117.461C1042.92 117.461 1042.13 117.649 1041.45 118.024C1040.78 118.399 1040.22 118.915 1039.76 119.571C1039.32 120.215 1038.98 120.959 1038.76 121.803C1038.54 122.635 1038.43 123.52 1038.43 124.458ZM1055.71 124.862V124.458C1055.71 123.086 1055.91 121.815 1056.3 120.643C1056.7 119.459 1057.28 118.434 1058.03 117.567C1058.78 116.688 1059.69 116.008 1060.75 115.528C1061.82 115.036 1063.01 114.79 1064.34 114.79C1065.67 114.79 1066.88 115.036 1067.94 115.528C1069.02 116.008 1069.93 116.688 1070.68 117.567C1071.45 118.434 1072.03 119.459 1072.42 120.643C1072.82 121.815 1073.02 123.086 1073.02 124.458V124.862C1073.02 126.233 1072.82 127.504 1072.42 128.676C1072.03 129.848 1071.45 130.874 1070.68 131.752C1069.93 132.62 1069.03 133.299 1067.96 133.792C1066.9 134.272 1065.71 134.512 1064.37 134.512C1063.04 134.512 1061.84 134.272 1060.77 133.792C1059.7 133.299 1058.79 132.62 1058.03 131.752C1057.28 130.874 1056.7 129.848 1056.3 128.676C1055.91 127.504 1055.71 126.233 1055.71 124.862ZM1058.96 124.458V124.862C1058.96 125.811 1059.07 126.708 1059.29 127.551C1059.52 128.383 1059.85 129.122 1060.29 129.766C1060.75 130.411 1061.32 130.92 1062 131.295C1062.68 131.659 1063.47 131.84 1064.37 131.84C1065.26 131.84 1066.04 131.659 1066.71 131.295C1067.39 130.92 1067.95 130.411 1068.4 129.766C1068.84 129.122 1069.18 128.383 1069.4 127.551C1069.63 126.708 1069.75 125.811 1069.75 124.862V124.458C1069.75 123.52 1069.63 122.635 1069.4 121.803C1069.18 120.959 1068.84 120.215 1068.38 119.571C1067.94 118.915 1067.37 118.399 1066.69 118.024C1066.03 117.649 1065.24 117.461 1064.34 117.461C1063.45 117.461 1062.66 117.649 1061.98 118.024C1061.31 118.399 1060.75 118.915 1060.29 119.571C1059.85 120.215 1059.52 120.959 1059.29 121.803C1059.07 122.635 1058.96 123.52 1058.96 124.458ZM1081.95 134.161H1078.7V113.137C1078.7 111.766 1078.95 110.612 1079.44 109.674C1079.94 108.725 1080.66 108.01 1081.6 107.53C1082.54 107.038 1083.65 106.792 1084.94 106.792C1085.31 106.792 1085.69 106.815 1086.06 106.862C1086.45 106.909 1086.83 106.979 1087.19 107.073L1087.01 109.727C1086.77 109.668 1086.49 109.627 1086.17 109.604C1085.87 109.581 1085.56 109.569 1085.26 109.569C1084.56 109.569 1083.97 109.709 1083.46 109.991C1082.97 110.26 1082.6 110.659 1082.34 111.186C1082.08 111.713 1081.95 112.364 1081.95 113.137V134.161ZM1085.99 115.141V117.637H1075.69V115.141H1085.99ZM1097.68 124.862V124.458C1097.68 123.086 1097.88 121.815 1098.28 120.643C1098.68 119.459 1099.25 118.434 1100 117.567C1100.75 116.688 1101.66 116.008 1102.73 115.528C1103.79 115.036 1104.99 114.79 1106.31 114.79C1107.65 114.79 1108.85 115.036 1109.92 115.528C1111 116.008 1111.91 116.688 1112.66 117.567C1113.42 118.434 1114 119.459 1114.4 120.643C1114.8 121.815 1115 123.086 1115 124.458V124.862C1115 126.233 1114.8 127.504 1114.4 128.676C1114 129.848 1113.42 130.874 1112.66 131.752C1111.91 132.62 1111 133.299 1109.94 133.792C1108.88 134.272 1107.69 134.512 1106.35 134.512C1105.01 134.512 1103.81 134.272 1102.75 133.792C1101.68 133.299 1100.77 132.62 1100 131.752C1099.25 130.874 1098.68 129.848 1098.28 128.676C1097.88 127.504 1097.68 126.233 1097.68 124.862ZM1100.94 124.458V124.862C1100.94 125.811 1101.05 126.708 1101.27 127.551C1101.49 128.383 1101.83 129.122 1102.27 129.766C1102.73 130.411 1103.3 130.92 1103.98 131.295C1104.66 131.659 1105.45 131.84 1106.35 131.84C1107.24 131.84 1108.02 131.659 1108.69 131.295C1109.37 130.92 1109.93 130.411 1110.38 129.766C1110.82 129.122 1111.15 128.383 1111.38 127.551C1111.61 126.708 1111.73 125.811 1111.73 124.862V124.458C1111.73 123.52 1111.61 122.635 1111.38 121.803C1111.15 120.959 1110.81 120.215 1110.36 119.571C1109.91 118.915 1109.35 118.399 1108.67 118.024C1108 117.649 1107.22 117.461 1106.31 117.461C1105.42 117.461 1104.64 117.649 1103.96 118.024C1103.29 118.399 1102.73 118.915 1102.27 119.571C1101.83 120.215 1101.49 120.959 1101.27 121.803C1101.05 122.635 1100.94 123.52 1100.94 124.458ZM1123.93 134.161H1120.68V113.137C1120.68 111.766 1120.92 110.612 1121.41 109.674C1121.92 108.725 1122.64 108.01 1123.58 107.53C1124.51 107.038 1125.63 106.792 1126.92 106.792C1127.29 106.792 1127.67 106.815 1128.04 106.862C1128.43 106.909 1128.8 106.979 1129.17 107.073L1128.99 109.727C1128.74 109.668 1128.46 109.627 1128.15 109.604C1127.84 109.581 1127.54 109.569 1127.23 109.569C1126.54 109.569 1125.94 109.709 1125.44 109.991C1124.95 110.26 1124.57 110.659 1124.31 111.186C1124.06 111.713 1123.93 112.364 1123.93 113.137V134.161ZM1127.97 115.141V117.637H1117.67V115.141H1127.97ZM1004.73 157.161V184.161H1001.48V157.161H1004.73ZM1003.96 173.93L1002.6 173.877C1002.62 172.577 1002.81 171.375 1003.18 170.274C1003.56 169.161 1004.09 168.194 1004.77 167.374C1005.45 166.553 1006.25 165.92 1007.19 165.475C1008.14 165.018 1009.19 164.79 1010.34 164.79C1011.28 164.79 1012.12 164.918 1012.87 165.176C1013.62 165.422 1014.26 165.821 1014.79 166.372C1015.32 166.922 1015.73 167.637 1016.02 168.516C1016.3 169.383 1016.44 170.444 1016.44 171.698V184.161H1013.17V171.663C1013.17 170.667 1013.02 169.87 1012.73 169.272C1012.44 168.663 1012.01 168.223 1011.45 167.954C1010.88 167.672 1010.19 167.532 1009.37 167.532C1008.56 167.532 1007.82 167.702 1007.16 168.042C1006.5 168.381 1005.93 168.85 1005.45 169.448C1004.98 170.045 1004.61 170.731 1004.34 171.504C1004.09 172.266 1003.96 173.075 1003.96 173.93ZM1029.2 184.512C1027.88 184.512 1026.67 184.29 1025.6 183.844C1024.53 183.387 1023.61 182.749 1022.84 181.928C1022.07 181.108 1021.49 180.135 1021.08 179.01C1020.67 177.885 1020.46 176.655 1020.46 175.319V174.581C1020.46 173.034 1020.69 171.657 1021.15 170.45C1021.61 169.231 1022.23 168.2 1023.01 167.356C1023.8 166.512 1024.69 165.874 1025.68 165.44C1026.68 165.006 1027.71 164.79 1028.78 164.79C1030.14 164.79 1031.31 165.024 1032.29 165.493C1033.29 165.961 1034.1 166.618 1034.74 167.461C1035.37 168.293 1035.84 169.278 1036.14 170.415C1036.45 171.54 1036.6 172.77 1036.6 174.106V175.565H1022.4V172.911H1033.35V172.665C1033.3 171.821 1033.12 171 1032.82 170.204C1032.53 169.407 1032.06 168.75 1031.41 168.235C1030.77 167.719 1029.89 167.461 1028.78 167.461C1028.04 167.461 1027.36 167.62 1026.74 167.936C1026.12 168.241 1025.58 168.698 1025.14 169.307C1024.69 169.917 1024.35 170.661 1024.1 171.54C1023.86 172.418 1023.73 173.432 1023.73 174.581V175.319C1023.73 176.221 1023.86 177.071 1024.1 177.868C1024.36 178.653 1024.73 179.344 1025.21 179.942C1025.7 180.54 1026.29 181.008 1026.98 181.348C1027.69 181.688 1028.48 181.858 1029.38 181.858C1030.52 181.858 1031.5 181.624 1032.29 181.155C1033.09 180.686 1033.79 180.059 1034.38 179.274L1036.35 180.838C1035.94 181.459 1035.42 182.051 1034.79 182.614C1034.16 183.176 1033.38 183.633 1032.45 183.985C1031.54 184.336 1030.45 184.512 1029.2 184.512ZM1051.61 180.909V171.118C1051.61 170.368 1051.46 169.717 1051.15 169.167C1050.86 168.604 1050.42 168.17 1049.82 167.866C1049.22 167.561 1048.48 167.409 1047.6 167.409C1046.78 167.409 1046.06 167.549 1045.44 167.831C1044.83 168.112 1044.35 168.481 1044 168.938C1043.66 169.395 1043.49 169.887 1043.49 170.415H1040.24C1040.24 169.735 1040.41 169.061 1040.77 168.393C1041.12 167.725 1041.62 167.122 1042.28 166.583C1042.95 166.032 1043.74 165.598 1044.67 165.282C1045.61 164.954 1046.65 164.79 1047.8 164.79C1049.18 164.79 1050.4 165.024 1051.45 165.493C1052.52 165.961 1053.35 166.67 1053.95 167.62C1054.56 168.557 1054.86 169.735 1054.86 171.153V180.012C1054.86 180.645 1054.92 181.319 1055.02 182.034C1055.14 182.749 1055.31 183.364 1055.53 183.879V184.161H1052.14C1051.97 183.786 1051.85 183.288 1051.75 182.667C1051.66 182.034 1051.61 181.448 1051.61 180.909ZM1052.17 172.629L1052.21 174.915H1048.92C1048 174.915 1047.17 174.991 1046.44 175.143C1045.72 175.284 1045.11 175.5 1044.62 175.793C1044.12 176.086 1043.75 176.456 1043.49 176.901C1043.23 177.334 1043.1 177.844 1043.1 178.43C1043.1 179.028 1043.24 179.573 1043.51 180.065C1043.78 180.557 1044.18 180.95 1044.72 181.243C1045.27 181.524 1045.95 181.665 1046.74 181.665C1047.74 181.665 1048.62 181.454 1049.38 181.032C1050.14 180.61 1050.74 180.094 1051.19 179.485C1051.65 178.875 1051.89 178.284 1051.93 177.709L1053.32 179.274C1053.23 179.766 1053.01 180.311 1052.65 180.909C1052.29 181.506 1051.8 182.081 1051.19 182.631C1050.59 183.17 1049.88 183.622 1049.04 183.985C1048.22 184.336 1047.3 184.512 1046.27 184.512C1044.98 184.512 1043.85 184.26 1042.88 183.756C1041.91 183.252 1041.16 182.579 1040.62 181.735C1040.1 180.879 1039.83 179.924 1039.83 178.87C1039.83 177.85 1040.03 176.954 1040.43 176.18C1040.83 175.395 1041.4 174.745 1042.15 174.229C1042.9 173.702 1043.81 173.303 1044.86 173.034C1045.92 172.764 1047.09 172.629 1048.39 172.629H1052.17ZM1063.51 157.161V184.161H1060.24V157.161H1063.51ZM1076.7 165.141V167.637H1066.41V165.141H1076.7ZM1069.89 160.518H1073.14V179.45C1073.14 180.094 1073.24 180.581 1073.44 180.909C1073.64 181.237 1073.9 181.454 1074.22 181.559C1074.53 181.665 1074.87 181.717 1075.24 181.717C1075.51 181.717 1075.79 181.694 1076.08 181.647C1076.38 181.588 1076.61 181.542 1076.77 181.506L1076.78 184.161C1076.53 184.243 1076.19 184.319 1075.76 184.389C1075.35 184.471 1074.86 184.512 1074.27 184.512C1073.47 184.512 1072.74 184.354 1072.07 184.038C1071.4 183.721 1070.87 183.194 1070.47 182.456C1070.09 181.706 1069.89 180.698 1069.89 179.432V160.518ZM1083.76 157.161V184.161H1080.51V157.161H1083.76ZM1082.99 173.93L1081.63 173.877C1081.65 172.577 1081.84 171.375 1082.21 170.274C1082.59 169.161 1083.12 168.194 1083.8 167.374C1084.48 166.553 1085.29 165.92 1086.22 165.475C1087.17 165.018 1088.22 164.79 1089.37 164.79C1090.31 164.79 1091.15 164.918 1091.9 165.176C1092.65 165.422 1093.29 165.821 1093.82 166.372C1094.36 166.922 1094.77 167.637 1095.05 168.516C1095.33 169.383 1095.47 170.444 1095.47 171.698V184.161H1092.2V171.663C1092.2 170.667 1092.05 169.87 1091.76 169.272C1091.47 168.663 1091.04 168.223 1090.48 167.954C1089.91 167.672 1089.22 167.532 1088.4 167.532C1087.59 167.532 1086.86 167.702 1086.19 168.042C1085.53 168.381 1084.96 168.85 1084.48 169.448C1084.01 170.045 1083.64 170.731 1083.38 171.504C1083.12 172.266 1082.99 173.075 1082.99 173.93ZM1004.71 218.92V234.161H1001.44V215.141H1004.54L1004.71 218.92ZM1004.04 223.93L1002.53 223.877C1002.54 222.577 1002.71 221.375 1003.04 220.274C1003.37 219.161 1003.86 218.194 1004.5 217.374C1005.15 216.553 1005.95 215.92 1006.91 215.475C1007.87 215.018 1008.98 214.79 1010.25 214.79C1011.14 214.79 1011.96 214.918 1012.71 215.176C1013.46 215.422 1014.11 215.815 1014.66 216.354C1015.21 216.893 1015.64 217.584 1015.95 218.428C1016.25 219.272 1016.4 220.292 1016.4 221.487V234.161H1013.15V221.645C1013.15 220.649 1012.98 219.852 1012.64 219.254C1012.31 218.657 1011.84 218.223 1011.23 217.954C1010.62 217.672 1009.91 217.532 1009.09 217.532C1008.13 217.532 1007.33 217.702 1006.68 218.042C1006.04 218.381 1005.52 218.85 1005.13 219.448C1004.75 220.045 1004.47 220.731 1004.29 221.504C1004.13 222.266 1004.04 223.075 1004.04 223.93ZM1016.37 222.137L1014.19 222.805C1014.2 221.762 1014.37 220.76 1014.7 219.799C1015.04 218.838 1015.52 217.983 1016.16 217.233C1016.8 216.483 1017.59 215.891 1018.53 215.458C1019.47 215.012 1020.54 214.79 1021.75 214.79C1022.77 214.79 1023.67 214.924 1024.45 215.194C1025.25 215.463 1025.92 215.879 1026.46 216.442C1027.01 216.993 1027.42 217.702 1027.71 218.569C1027.99 219.436 1028.13 220.467 1028.13 221.663V234.161H1024.86V221.627C1024.86 220.561 1024.69 219.735 1024.35 219.149C1024.02 218.551 1023.55 218.135 1022.94 217.901C1022.34 217.655 1021.63 217.532 1020.8 217.532C1020.08 217.532 1019.45 217.655 1018.9 217.901C1018.35 218.147 1017.88 218.487 1017.51 218.92C1017.13 219.342 1016.85 219.829 1016.65 220.379C1016.46 220.93 1016.37 221.516 1016.37 222.137ZM1036.58 215.141V234.161H1033.31V215.141H1036.58ZM1033.07 210.096C1033.07 209.569 1033.22 209.124 1033.54 208.76C1033.87 208.397 1034.35 208.215 1034.98 208.215C1035.6 208.215 1036.08 208.397 1036.41 208.76C1036.75 209.124 1036.92 209.569 1036.92 210.096C1036.92 210.6 1036.75 211.034 1036.41 211.397C1036.08 211.749 1035.6 211.924 1034.98 211.924C1034.35 211.924 1033.87 211.749 1033.54 211.397C1033.22 211.034 1033.07 210.6 1033.07 210.096ZM1045.05 219.202V234.161H1041.8V215.141H1044.88L1045.05 219.202ZM1044.28 223.93L1042.93 223.877C1042.94 222.577 1043.13 221.375 1043.51 220.274C1043.88 219.161 1044.41 218.194 1045.09 217.374C1045.77 216.553 1046.58 215.92 1047.52 215.475C1048.46 215.018 1049.51 214.79 1050.66 214.79C1051.6 214.79 1052.44 214.918 1053.19 215.176C1053.94 215.422 1054.58 215.821 1055.11 216.372C1055.65 216.922 1056.06 217.637 1056.34 218.516C1056.62 219.383 1056.76 220.444 1056.76 221.698V234.161H1053.49V221.663C1053.49 220.667 1053.35 219.87 1053.05 219.272C1052.76 218.663 1052.33 218.223 1051.77 217.954C1051.21 217.672 1050.52 217.532 1049.7 217.532C1048.89 217.532 1048.15 217.702 1047.48 218.042C1046.82 218.381 1046.26 218.85 1045.78 219.448C1045.31 220.045 1044.94 220.731 1044.67 221.504C1044.41 222.266 1044.28 223.075 1044.28 223.93ZM1065.23 215.141V234.161H1061.96V215.141H1065.23ZM1061.72 210.096C1061.72 209.569 1061.88 209.124 1062.19 208.76C1062.52 208.397 1063 208.215 1063.63 208.215C1064.26 208.215 1064.73 208.397 1065.06 208.76C1065.4 209.124 1065.57 209.569 1065.57 210.096C1065.57 210.6 1065.4 211.034 1065.06 211.397C1064.73 211.749 1064.26 211.924 1063.63 211.924C1063 211.924 1062.52 211.749 1062.19 211.397C1061.88 211.034 1061.72 210.6 1061.72 210.096ZM1073.71 219.202V234.161H1070.46V215.141H1073.53L1073.71 219.202ZM1072.93 223.93L1071.58 223.877C1071.59 222.577 1071.79 221.375 1072.16 220.274C1072.54 219.161 1073.06 218.194 1073.74 217.374C1074.42 216.553 1075.23 215.92 1076.17 215.475C1077.12 215.018 1078.17 214.79 1079.31 214.79C1080.25 214.79 1081.1 214.918 1081.85 215.176C1082.6 215.422 1083.23 215.821 1083.76 216.372C1084.3 216.922 1084.71 217.637 1084.99 218.516C1085.27 219.383 1085.41 220.444 1085.41 221.698V234.161H1082.14V221.663C1082.14 220.667 1082 219.87 1081.71 219.272C1081.41 218.663 1080.98 218.223 1080.42 217.954C1079.86 217.672 1079.17 217.532 1078.35 217.532C1077.54 217.532 1076.8 217.702 1076.13 218.042C1075.48 218.381 1074.91 218.85 1074.43 219.448C1073.96 220.045 1073.59 220.731 1073.32 221.504C1073.06 222.266 1072.93 223.075 1072.93 223.93ZM1102.68 215.141H1105.63V233.756C1105.63 235.432 1105.29 236.862 1104.61 238.045C1103.93 239.229 1102.98 240.125 1101.76 240.735C1100.55 241.356 1099.16 241.667 1097.58 241.667C1096.92 241.667 1096.15 241.561 1095.26 241.35C1094.38 241.151 1093.51 240.805 1092.66 240.313C1091.81 239.833 1091.1 239.182 1090.53 238.362L1092.23 236.428C1093.03 237.389 1093.86 238.057 1094.73 238.432C1095.61 238.807 1096.48 238.995 1097.33 238.995C1098.36 238.995 1099.25 238.801 1100 238.415C1100.75 238.028 1101.33 237.454 1101.74 236.692C1102.17 235.942 1102.38 235.016 1102.38 233.915V219.325L1102.68 215.141ZM1089.58 224.862V224.493C1089.58 223.04 1089.75 221.721 1090.09 220.538C1090.44 219.342 1090.94 218.317 1091.58 217.461C1092.24 216.606 1093.03 215.95 1093.96 215.493C1094.88 215.024 1095.93 214.79 1097.09 214.79C1098.28 214.79 1099.32 215 1100.21 215.422C1101.12 215.833 1101.88 216.436 1102.5 217.233C1103.13 218.018 1103.63 218.967 1103.99 220.081C1104.36 221.194 1104.61 222.454 1104.75 223.86V225.477C1104.62 226.872 1104.37 228.125 1103.99 229.239C1103.63 230.352 1103.13 231.301 1102.5 232.086C1101.88 232.872 1101.12 233.475 1100.21 233.897C1099.31 234.307 1098.26 234.512 1097.05 234.512C1095.91 234.512 1094.88 234.272 1093.96 233.792C1093.04 233.311 1092.26 232.637 1091.6 231.77C1090.95 230.903 1090.44 229.883 1090.09 228.711C1089.75 227.528 1089.58 226.245 1089.58 224.862ZM1092.83 224.493V224.862C1092.83 225.811 1092.93 226.702 1093.11 227.534C1093.31 228.366 1093.61 229.098 1094.01 229.731C1094.42 230.364 1094.94 230.862 1095.57 231.225C1096.21 231.577 1096.96 231.752 1097.84 231.752C1098.92 231.752 1099.81 231.524 1100.51 231.067C1101.22 230.61 1101.77 230.006 1102.18 229.256C1102.61 228.506 1102.93 227.692 1103.17 226.813V222.577C1103.04 221.932 1102.84 221.311 1102.57 220.713C1102.31 220.104 1101.97 219.565 1101.55 219.096C1101.14 218.616 1100.63 218.235 1100.02 217.954C1099.41 217.672 1098.7 217.532 1097.88 217.532C1096.99 217.532 1096.22 217.719 1095.57 218.094C1094.94 218.458 1094.42 218.961 1094.01 219.606C1093.61 220.239 1093.31 220.977 1093.11 221.821C1092.93 222.653 1092.83 223.543 1092.83 224.493Z" fill="#333333"/>
<path d="M1006.71 64.9697H1009.72C1010.69 64.9697 1011.48 64.807 1012.11 64.4814C1012.73 64.1429 1013.19 63.6742 1013.49 63.0752C1013.8 62.4632 1013.96 61.7536 1013.96 60.9463C1013.96 60.2171 1013.82 59.5726 1013.53 59.0127C1013.26 58.4398 1012.83 57.9971 1012.26 57.6846C1011.69 57.359 1010.97 57.1963 1010.09 57.1963C1009.4 57.1963 1008.77 57.333 1008.18 57.6064C1007.59 57.8799 1007.12 58.264 1006.77 58.7588C1006.42 59.2536 1006.25 59.8525 1006.25 60.5557H1000.6C1000.6 58.9932 1001.02 57.6325 1001.85 56.4736C1002.7 55.3148 1003.83 54.4098 1005.25 53.7588C1006.67 53.1077 1008.23 52.7822 1009.94 52.7822C1011.86 52.7822 1013.55 53.0947 1015 53.7197C1016.44 54.3317 1017.57 55.2367 1018.38 56.4346C1019.18 57.6325 1019.59 59.1169 1019.59 60.8877C1019.59 61.7861 1019.38 62.6585 1018.96 63.5049C1018.54 64.3382 1017.95 65.0934 1017.16 65.7705C1016.4 66.4346 1015.46 66.9684 1014.35 67.3721C1013.24 67.7627 1012 67.958 1010.62 67.958H1006.71V64.9697ZM1006.71 69.2471V66.3369H1010.62C1012.17 66.3369 1013.53 66.5127 1014.7 66.8643C1015.88 67.2158 1016.86 67.7236 1017.65 68.3877C1018.45 69.0387 1019.05 69.8135 1019.45 70.7119C1019.85 71.5973 1020.05 72.5804 1020.05 73.6611C1020.05 74.9893 1019.8 76.1742 1019.29 77.2158C1018.79 78.2445 1018.07 79.1169 1017.14 79.833C1016.23 80.5492 1015.17 81.096 1013.94 81.4736C1012.72 81.8382 1011.38 82.0205 1009.94 82.0205C1008.74 82.0205 1007.56 81.8577 1006.4 81.5322C1005.26 81.1937 1004.21 80.6924 1003.28 80.0283C1002.35 79.3512 1001.61 78.5049 1001.05 77.4893C1000.5 76.4606 1000.23 75.2432 1000.23 73.8369H1005.88C1005.88 74.5661 1006.06 75.2171 1006.42 75.79C1006.79 76.363 1007.29 76.8122 1007.93 77.1377C1008.58 77.4632 1009.3 77.626 1010.09 77.626C1010.99 77.626 1011.76 77.4632 1012.4 77.1377C1013.05 76.7992 1013.54 76.3304 1013.88 75.7314C1014.23 75.1195 1014.41 74.4098 1014.41 73.6025C1014.41 72.5609 1014.22 71.7275 1013.84 71.1025C1013.47 70.4645 1012.93 69.9958 1012.22 69.6963C1011.52 69.3968 1010.69 69.2471 1009.72 69.2471H1006.71ZM1043.06 64.9111V69.833C1043.06 71.9684 1042.83 73.8109 1042.38 75.3604C1041.92 76.8968 1041.27 78.1598 1040.41 79.1494C1039.56 80.126 1038.55 80.8486 1037.38 81.3174C1036.21 81.7861 1034.9 82.0205 1033.47 82.0205C1032.33 82.0205 1031.26 81.8773 1030.27 81.5908C1029.28 81.2913 1028.39 80.8291 1027.59 80.2041C1026.81 79.5791 1026.14 78.7913 1025.56 77.8408C1025 76.8773 1024.57 75.7314 1024.27 74.4033C1023.97 73.0752 1023.82 71.5518 1023.82 69.833V64.9111C1023.82 62.7757 1024.05 60.9463 1024.51 59.4229C1024.98 57.8864 1025.63 56.6299 1026.48 55.6533C1027.34 54.6768 1028.36 53.9606 1029.53 53.5049C1030.7 53.0361 1032 52.8018 1033.43 52.8018C1034.58 52.8018 1035.64 52.9515 1036.62 53.251C1037.61 53.5374 1038.5 53.9867 1039.29 54.5986C1040.09 55.2106 1040.76 55.9984 1041.32 56.9619C1041.88 57.9124 1042.31 59.0518 1042.61 60.3799C1042.91 61.695 1043.06 63.2054 1043.06 64.9111ZM1037.42 70.5752V64.1494C1037.42 63.1208 1037.36 62.2223 1037.24 61.4541C1037.14 60.6859 1036.98 60.0348 1036.75 59.501C1036.53 58.9541 1036.26 58.5114 1035.93 58.1729C1035.61 57.8343 1035.24 57.5869 1034.82 57.4307C1034.4 57.2744 1033.94 57.1963 1033.43 57.1963C1032.8 57.1963 1032.23 57.32 1031.73 57.5674C1031.25 57.8148 1030.84 58.2119 1030.5 58.7588C1030.17 59.2926 1029.9 60.0088 1029.72 60.9072C1029.55 61.7926 1029.47 62.8734 1029.47 64.1494V70.5752C1029.47 71.6038 1029.52 72.5088 1029.62 73.29C1029.74 74.0713 1029.91 74.7419 1030.13 75.3018C1030.37 75.8486 1030.64 76.2979 1030.95 76.6494C1031.28 76.988 1031.65 77.2354 1032.07 77.3916C1032.5 77.5479 1032.96 77.626 1033.47 77.626C1034.1 77.626 1034.65 77.5023 1035.13 77.2549C1035.63 76.9945 1036.04 76.5908 1036.38 76.0439C1036.73 75.484 1036.99 74.7549 1037.16 73.8564C1037.33 72.958 1037.42 71.8643 1037.42 70.5752ZM1046.81 60.165V58.6611C1046.81 57.5804 1047.05 56.5973 1047.52 55.7119C1047.98 54.8265 1048.67 54.1169 1049.59 53.583C1050.5 53.0492 1051.62 52.7822 1052.95 52.7822C1054.31 52.7822 1055.45 53.0492 1056.36 53.583C1057.29 54.1169 1057.98 54.8265 1058.43 55.7119C1058.9 56.5973 1059.14 57.5804 1059.14 58.6611V60.165C1059.14 61.2197 1058.9 62.1898 1058.43 63.0752C1057.98 63.9606 1057.29 64.6702 1056.38 65.2041C1055.47 65.738 1054.35 66.0049 1053 66.0049C1051.65 66.0049 1050.51 65.738 1049.59 65.2041C1048.67 64.6702 1047.98 63.9606 1047.52 63.0752C1047.05 62.1898 1046.81 61.2197 1046.81 60.165ZM1050.54 58.6611V60.165C1050.54 60.6208 1050.63 61.057 1050.8 61.4736C1050.98 61.8773 1051.25 62.2093 1051.62 62.4697C1051.99 62.7171 1052.45 62.8408 1052.98 62.8408C1053.54 62.8408 1054 62.7171 1054.35 62.4697C1054.7 62.2093 1054.96 61.8773 1055.13 61.4736C1055.3 61.057 1055.39 60.6208 1055.39 60.165V58.6611C1055.39 58.1794 1055.3 57.7367 1055.11 57.333C1054.94 56.9163 1054.68 56.5843 1054.31 56.3369C1053.96 56.0765 1053.51 55.9463 1052.95 55.9463C1052.42 55.9463 1051.98 56.0765 1051.62 56.3369C1051.25 56.5843 1050.98 56.9163 1050.8 57.333C1050.63 57.7367 1050.54 58.1794 1050.54 58.6611ZM1060.41 76.1611V74.6572C1060.41 73.5895 1060.64 72.613 1061.11 71.7275C1061.59 70.8421 1062.29 70.1325 1063.2 69.5986C1064.12 69.0648 1065.26 68.7979 1066.6 68.7979C1067.95 68.7979 1069.08 69.0648 1070 69.5986C1070.91 70.1325 1071.6 70.8421 1072.07 71.7275C1072.54 72.613 1072.77 73.5895 1072.77 74.6572V76.1611C1072.77 77.2288 1072.54 78.2054 1072.07 79.0908C1071.61 79.9762 1070.93 80.6859 1070.02 81.2197C1069.1 81.7536 1067.98 82.0205 1066.64 82.0205C1065.28 82.0205 1064.14 81.7536 1063.22 81.2197C1062.29 80.6859 1061.59 79.9762 1061.11 79.0908C1060.64 78.2054 1060.41 77.2288 1060.41 76.1611ZM1064.16 74.6572V76.1611C1064.16 76.6299 1064.26 77.0726 1064.47 77.4893C1064.68 77.9059 1064.96 78.238 1065.33 78.4854C1065.71 78.7327 1066.14 78.8564 1066.64 78.8564C1067.26 78.8564 1067.75 78.7327 1068.1 78.4854C1068.45 78.238 1068.69 77.9059 1068.82 77.4893C1068.97 77.0726 1069.04 76.6299 1069.04 76.1611V74.6572C1069.04 74.1885 1068.95 73.7523 1068.77 73.3486C1068.58 72.932 1068.31 72.5999 1067.95 72.3525C1067.59 72.0921 1067.14 71.9619 1066.6 71.9619C1066.05 71.9619 1065.6 72.0921 1065.23 72.3525C1064.88 72.5999 1064.61 72.932 1064.43 73.3486C1064.25 73.7523 1064.16 74.1885 1064.16 74.6572ZM1067.98 57.2549L1054.1 79.4814L1051.36 78.0361L1065.25 55.8096L1067.98 57.2549Z" fill="#09721A"/>
<path d="M1017.49 698.401V701.161H1004.7V698.401H1017.49ZM1005.36 675.567V701.161H1001.97V675.567H1005.36ZM1024.42 682.141V701.161H1021.15V682.141H1024.42ZM1020.9 677.096C1020.9 676.569 1021.06 676.124 1021.38 675.76C1021.71 675.397 1022.19 675.215 1022.82 675.215C1023.44 675.215 1023.91 675.397 1024.24 675.76C1024.58 676.124 1024.75 676.569 1024.75 677.096C1024.75 677.6 1024.58 678.034 1024.24 678.397C1023.91 678.749 1023.44 678.924 1022.82 678.924C1022.19 678.924 1021.71 678.749 1021.38 678.397C1021.06 678.034 1020.9 677.6 1020.9 677.096ZM1041.61 708.473V685.797L1041.89 682.141H1044.88V708.473H1041.61ZM1028.83 691.862V691.493C1028.83 690.04 1029 688.721 1029.34 687.538C1029.68 686.342 1030.18 685.317 1030.83 684.461C1031.49 683.606 1032.28 682.95 1033.21 682.493C1034.14 682.024 1035.21 681.79 1036.41 681.79C1037.6 681.79 1038.65 682 1039.55 682.422C1040.47 682.833 1041.24 683.436 1041.87 684.233C1042.52 685.018 1043.03 685.967 1043.4 687.081C1043.78 688.194 1044.04 689.454 1044.18 690.86V692.477C1044.05 693.872 1043.79 695.125 1043.42 696.239C1043.04 697.352 1042.54 698.301 1041.89 699.086C1041.26 699.872 1040.48 700.475 1039.55 700.897C1038.64 701.307 1037.58 701.512 1036.37 701.512C1035.2 701.512 1034.14 701.272 1033.21 700.792C1032.28 700.311 1031.49 699.637 1030.83 698.77C1030.19 697.903 1029.69 696.883 1029.34 695.711C1029 694.528 1028.83 693.245 1028.83 691.862ZM1032.1 691.493V691.862C1032.1 692.811 1032.2 693.708 1032.4 694.551C1032.6 695.383 1032.9 696.122 1033.31 696.766C1033.73 697.411 1034.26 697.92 1034.89 698.295C1035.54 698.659 1036.3 698.84 1037.18 698.84C1038.26 698.84 1039.15 698.606 1039.87 698.137C1040.6 697.668 1041.18 697.053 1041.61 696.292C1042.04 695.518 1042.38 694.692 1042.61 693.813V689.577C1042.48 688.932 1042.28 688.305 1042 687.696C1041.73 687.086 1041.38 686.542 1040.94 686.061C1040.51 685.569 1039.98 685.182 1039.36 684.901C1038.75 684.608 1038.04 684.461 1037.21 684.461C1036.32 684.461 1035.56 684.649 1034.91 685.024C1034.27 685.399 1033.73 685.915 1033.31 686.571C1032.9 687.215 1032.6 687.959 1032.4 688.803C1032.2 689.647 1032.1 690.543 1032.1 691.493ZM1061.74 696.766V682.141H1065.01V701.161H1061.89L1061.74 696.766ZM1062.35 692.758L1063.71 692.723C1063.71 693.989 1063.57 695.161 1063.3 696.239C1063.04 697.305 1062.62 698.231 1062.04 699.016C1061.45 699.801 1060.68 700.417 1059.73 700.862C1058.78 701.295 1057.63 701.512 1056.27 701.512C1055.34 701.512 1054.49 701.377 1053.72 701.108C1052.96 700.838 1052.3 700.422 1051.75 699.86C1051.2 699.297 1050.77 698.565 1050.47 697.663C1050.18 696.76 1050.03 695.676 1050.03 694.411V682.141H1053.28V694.446C1053.28 695.301 1053.38 696.01 1053.56 696.573C1053.76 697.124 1054.03 697.563 1054.35 697.891C1054.69 698.208 1055.07 698.43 1055.48 698.559C1055.9 698.688 1056.33 698.752 1056.78 698.752C1058.16 698.752 1059.26 698.489 1060.07 697.961C1060.88 697.422 1061.46 696.702 1061.81 695.799C1062.17 694.885 1062.35 693.872 1062.35 692.758ZM1073.5 682.141V701.161H1070.23V682.141H1073.5ZM1069.98 677.096C1069.98 676.569 1070.14 676.124 1070.46 675.76C1070.78 675.397 1071.26 675.215 1071.9 675.215C1072.52 675.215 1072.99 675.397 1073.32 675.76C1073.66 676.124 1073.83 676.569 1073.83 677.096C1073.83 677.6 1073.66 678.034 1073.32 678.397C1072.99 678.749 1072.52 678.924 1071.9 678.924C1071.26 678.924 1070.78 678.749 1070.46 678.397C1070.14 678.034 1069.98 677.6 1069.98 677.096ZM1090.71 697.469V674.161H1093.97V701.161H1090.99L1090.71 697.469ZM1077.91 691.862V691.493C1077.91 690.04 1078.08 688.721 1078.44 687.538C1078.8 686.342 1079.31 685.317 1079.96 684.461C1080.63 683.606 1081.42 682.95 1082.34 682.493C1083.26 682.024 1084.29 681.79 1085.43 681.79C1086.63 681.79 1087.67 682 1088.56 682.422C1089.46 682.833 1090.22 683.436 1090.85 684.233C1091.48 685.018 1091.98 685.967 1092.34 687.081C1092.7 688.194 1092.96 689.454 1093.1 690.86V692.477C1092.97 693.872 1092.71 695.125 1092.34 696.239C1091.98 697.352 1091.48 698.301 1090.85 699.086C1090.22 699.872 1089.46 700.475 1088.56 700.897C1087.66 701.307 1086.6 701.512 1085.4 701.512C1084.28 701.512 1083.26 701.272 1082.34 700.792C1081.42 700.311 1080.63 699.637 1079.96 698.77C1079.31 697.903 1078.8 696.883 1078.44 695.711C1078.08 694.528 1077.91 693.245 1077.91 691.862ZM1081.18 691.493V691.862C1081.18 692.811 1081.27 693.702 1081.46 694.534C1081.66 695.366 1081.96 696.098 1082.37 696.731C1082.78 697.364 1083.3 697.862 1083.94 698.225C1084.57 698.577 1085.33 698.752 1086.21 698.752C1087.28 698.752 1088.17 698.524 1088.86 698.067C1089.56 697.61 1090.12 697.006 1090.55 696.256C1090.97 695.506 1091.3 694.692 1091.53 693.813V689.577C1091.39 688.932 1091.19 688.311 1090.92 687.713C1090.66 687.104 1090.32 686.565 1089.9 686.096C1089.49 685.616 1088.98 685.235 1088.37 684.954C1087.77 684.672 1087.06 684.532 1086.24 684.532C1085.35 684.532 1084.58 684.719 1083.94 685.094C1083.3 685.458 1082.78 685.961 1082.37 686.606C1081.96 687.239 1081.66 687.977 1081.46 688.821C1081.27 689.653 1081.18 690.543 1081.18 691.493ZM1102.57 682.141V701.161H1099.3V682.141H1102.57ZM1099.05 677.096C1099.05 676.569 1099.21 676.124 1099.53 675.76C1099.86 675.397 1100.34 675.215 1100.97 675.215C1101.59 675.215 1102.07 675.397 1102.39 675.76C1102.73 676.124 1102.9 676.569 1102.9 677.096C1102.9 677.6 1102.73 678.034 1102.39 678.397C1102.07 678.749 1101.59 678.924 1100.97 678.924C1100.34 678.924 1099.86 678.749 1099.53 678.397C1099.21 678.034 1099.05 677.6 1099.05 677.096ZM1115.75 682.141V684.637H1105.47V682.141H1115.75ZM1108.95 677.518H1112.2V696.45C1112.2 697.094 1112.3 697.581 1112.5 697.909C1112.7 698.237 1112.96 698.454 1113.28 698.559C1113.59 698.665 1113.93 698.717 1114.29 698.717C1114.56 698.717 1114.85 698.694 1115.14 698.647C1115.44 698.588 1115.67 698.542 1115.82 698.506L1115.84 701.161C1115.58 701.243 1115.24 701.319 1114.82 701.389C1114.41 701.471 1113.91 701.512 1113.33 701.512C1112.53 701.512 1111.8 701.354 1111.13 701.038C1110.46 700.721 1109.93 700.194 1109.53 699.456C1109.14 698.706 1108.95 697.698 1108.95 696.432V677.518ZM1124.91 699.192L1130.2 682.141H1133.68L1126.05 704.096C1125.88 704.565 1125.64 705.069 1125.35 705.608C1125.07 706.159 1124.71 706.68 1124.26 707.172C1123.82 707.665 1123.28 708.063 1122.64 708.368C1122.02 708.684 1121.28 708.842 1120.41 708.842C1120.15 708.842 1119.83 708.807 1119.43 708.737C1119.03 708.667 1118.75 708.608 1118.58 708.561L1118.57 705.924C1118.66 705.936 1118.81 705.948 1119.01 705.959C1119.22 705.983 1119.36 705.995 1119.45 705.995C1120.18 705.995 1120.81 705.895 1121.33 705.696C1121.84 705.508 1122.28 705.186 1122.63 704.729C1122.99 704.284 1123.3 703.668 1123.56 702.883L1124.91 699.192ZM1121.03 682.141L1125.97 696.907L1126.81 700.334L1124.47 701.53L1117.48 682.141H1121.03Z" fill="#333333"/>
<path d="M1020.41 643.295V647.689H1000.95V643.939L1010.15 634.076C1011.08 633.047 1011.81 632.142 1012.34 631.361C1012.87 630.567 1013.26 629.857 1013.49 629.232C1013.74 628.594 1013.86 627.989 1013.86 627.416C1013.86 626.556 1013.72 625.821 1013.43 625.209C1013.15 624.584 1012.72 624.102 1012.16 623.763C1011.62 623.425 1010.94 623.256 1010.13 623.256C1009.27 623.256 1008.53 623.464 1007.91 623.881C1007.29 624.297 1006.83 624.877 1006.5 625.619C1006.19 626.361 1006.03 627.201 1006.03 628.138H1000.39C1000.39 626.446 1000.79 624.896 1001.6 623.49C1002.4 622.071 1003.54 620.944 1005.02 620.111C1006.49 619.265 1008.23 618.842 1010.25 618.842C1012.24 618.842 1013.92 619.167 1015.29 619.818C1016.67 620.456 1017.71 621.381 1018.41 622.592C1019.13 623.789 1019.49 625.222 1019.49 626.888C1019.49 627.826 1019.34 628.744 1019.04 629.642C1018.74 630.528 1018.31 631.413 1017.75 632.299C1017.2 633.171 1016.54 634.056 1015.76 634.955C1014.98 635.853 1014.11 636.784 1013.16 637.748L1008.22 643.295H1020.41ZM1029.21 634.74L1024.72 633.666L1026.34 619.252H1042.32V623.802H1030.97L1030.27 630.111C1030.65 629.89 1031.22 629.655 1031.99 629.408C1032.76 629.148 1033.62 629.017 1034.57 629.017C1035.95 629.017 1037.17 629.232 1038.24 629.662C1039.31 630.092 1040.21 630.717 1040.95 631.537C1041.71 632.357 1042.28 633.36 1042.67 634.545C1043.06 635.73 1043.26 637.071 1043.26 638.568C1043.26 639.831 1043.06 641.036 1042.67 642.181C1042.28 643.314 1041.69 644.33 1040.89 645.228C1040.1 646.114 1039.1 646.81 1037.91 647.318C1036.71 647.826 1035.29 648.08 1033.65 648.08C1032.42 648.08 1031.24 647.898 1030.09 647.533C1028.96 647.168 1027.94 646.628 1027.03 645.912C1026.13 645.196 1025.41 644.33 1024.86 643.314C1024.33 642.286 1024.05 641.114 1024.02 639.799H1029.61C1029.68 640.606 1029.89 641.302 1030.23 641.888C1030.58 642.461 1031.04 642.904 1031.62 643.217C1032.19 643.529 1032.86 643.685 1033.63 643.685C1034.35 643.685 1034.96 643.549 1035.46 643.275C1035.97 643.002 1036.38 642.624 1036.7 642.142C1037.01 641.648 1037.24 641.075 1037.38 640.424C1037.54 639.76 1037.61 639.043 1037.61 638.275C1037.61 637.507 1037.52 636.81 1037.34 636.185C1037.16 635.56 1036.88 635.02 1036.5 634.564C1036.12 634.108 1035.64 633.757 1035.05 633.51C1034.48 633.262 1033.81 633.138 1033.04 633.138C1032 633.138 1031.19 633.301 1030.62 633.627C1030.06 633.952 1029.59 634.323 1029.21 634.74ZM1046.81 626.224V624.72C1046.81 623.64 1047.05 622.657 1047.52 621.771C1047.98 620.886 1048.67 620.176 1049.59 619.642C1050.5 619.108 1051.62 618.842 1052.95 618.842C1054.31 618.842 1055.45 619.108 1056.36 619.642C1057.29 620.176 1057.98 620.886 1058.43 621.771C1058.9 622.657 1059.14 623.64 1059.14 624.72V626.224C1059.14 627.279 1058.9 628.249 1058.43 629.135C1057.98 630.02 1057.29 630.73 1056.38 631.263C1055.47 631.797 1054.35 632.064 1053 632.064C1051.65 632.064 1050.51 631.797 1049.59 631.263C1048.67 630.73 1047.98 630.02 1047.52 629.135C1047.05 628.249 1046.81 627.279 1046.81 626.224ZM1050.54 624.72V626.224C1050.54 626.68 1050.63 627.116 1050.8 627.533C1050.98 627.937 1051.25 628.269 1051.62 628.529C1051.99 628.776 1052.45 628.9 1052.98 628.9C1053.54 628.9 1054 628.776 1054.35 628.529C1054.7 628.269 1054.96 627.937 1055.13 627.533C1055.3 627.116 1055.39 626.68 1055.39 626.224V624.72C1055.39 624.239 1055.3 623.796 1055.11 623.392C1054.94 622.976 1054.68 622.644 1054.31 622.396C1053.96 622.136 1053.51 622.006 1052.95 622.006C1052.42 622.006 1051.98 622.136 1051.62 622.396C1051.25 622.644 1050.98 622.976 1050.8 623.392C1050.63 623.796 1050.54 624.239 1050.54 624.72ZM1060.41 642.22V640.717C1060.41 639.649 1060.64 638.672 1061.11 637.787C1061.59 636.901 1062.29 636.192 1063.2 635.658C1064.12 635.124 1065.26 634.857 1066.6 634.857C1067.95 634.857 1069.08 635.124 1070 635.658C1070.91 636.192 1071.6 636.901 1072.07 637.787C1072.54 638.672 1072.77 639.649 1072.77 640.717V642.22C1072.77 643.288 1072.54 644.265 1072.07 645.15C1071.61 646.036 1070.93 646.745 1070.02 647.279C1069.1 647.813 1067.98 648.08 1066.64 648.08C1065.28 648.08 1064.14 647.813 1063.22 647.279C1062.29 646.745 1061.59 646.036 1061.11 645.15C1060.64 644.265 1060.41 643.288 1060.41 642.22ZM1064.16 640.717V642.22C1064.16 642.689 1064.26 643.132 1064.47 643.549C1064.68 643.965 1064.96 644.297 1065.33 644.545C1065.71 644.792 1066.14 644.916 1066.64 644.916C1067.26 644.916 1067.75 644.792 1068.1 644.545C1068.45 644.297 1068.69 643.965 1068.82 643.549C1068.97 643.132 1069.04 642.689 1069.04 642.22V640.717C1069.04 640.248 1068.95 639.812 1068.77 639.408C1068.58 638.991 1068.31 638.659 1067.95 638.412C1067.59 638.151 1067.14 638.021 1066.6 638.021C1066.05 638.021 1065.6 638.151 1065.23 638.412C1064.88 638.659 1064.61 638.991 1064.43 639.408C1064.25 639.812 1064.16 640.248 1064.16 640.717ZM1067.98 623.314L1054.1 645.541L1051.36 644.095L1065.25 621.869L1067.98 623.314Z" fill="#09721A"/>
<path d="M94.6094 675.567V701.161H91.2168V675.567H94.6094ZM103.539 686.202V701.161H100.287V682.141H103.363L103.539 686.202ZM102.766 690.93L101.412 690.877C101.424 689.577 101.617 688.375 101.992 687.274C102.367 686.161 102.895 685.194 103.574 684.374C104.254 683.553 105.062 682.92 106 682.475C106.949 682.018 107.998 681.79 109.146 681.79C110.084 681.79 110.928 681.918 111.678 682.176C112.428 682.422 113.066 682.821 113.594 683.372C114.133 683.922 114.543 684.637 114.824 685.516C115.105 686.383 115.246 687.444 115.246 688.698V701.161H111.977V688.663C111.977 687.667 111.83 686.87 111.537 686.272C111.244 685.663 110.816 685.223 110.254 684.954C109.691 684.672 109 684.532 108.18 684.532C107.371 684.532 106.633 684.702 105.965 685.042C105.309 685.381 104.74 685.85 104.26 686.448C103.791 687.045 103.422 687.731 103.152 688.504C102.895 689.266 102.766 690.075 102.766 690.93ZM125.969 698.225L131.172 682.141H134.494L127.656 701.161H125.477L125.969 698.225ZM121.627 682.141L126.988 698.313L127.357 701.161H125.178L118.287 682.141H121.627ZM145.27 701.512C143.945 701.512 142.744 701.29 141.666 700.844C140.6 700.387 139.68 699.749 138.906 698.928C138.145 698.108 137.559 697.135 137.148 696.01C136.738 694.885 136.533 693.655 136.533 692.319V691.581C136.533 690.034 136.762 688.657 137.219 687.45C137.676 686.231 138.297 685.2 139.082 684.356C139.867 683.512 140.758 682.874 141.754 682.44C142.75 682.006 143.781 681.79 144.848 681.79C146.207 681.79 147.379 682.024 148.363 682.493C149.359 682.961 150.174 683.618 150.807 684.461C151.439 685.293 151.908 686.278 152.213 687.415C152.518 688.54 152.67 689.77 152.67 691.106V692.565H138.467V689.911H149.418V689.665C149.371 688.821 149.195 688 148.891 687.204C148.598 686.407 148.129 685.75 147.484 685.235C146.84 684.719 145.961 684.461 144.848 684.461C144.109 684.461 143.43 684.62 142.809 684.936C142.188 685.241 141.654 685.698 141.209 686.307C140.764 686.917 140.418 687.661 140.172 688.54C139.926 689.418 139.803 690.432 139.803 691.581V692.319C139.803 693.221 139.926 694.071 140.172 694.868C140.43 695.653 140.799 696.344 141.279 696.942C141.771 697.54 142.363 698.008 143.055 698.348C143.758 698.688 144.555 698.858 145.445 698.858C146.594 698.858 147.566 698.624 148.363 698.155C149.16 697.686 149.857 697.059 150.455 696.274L152.424 697.838C152.014 698.459 151.492 699.051 150.859 699.614C150.227 700.176 149.447 700.633 148.521 700.985C147.607 701.336 146.523 701.512 145.27 701.512ZM167.541 696.116C167.541 695.647 167.436 695.213 167.225 694.815C167.025 694.405 166.609 694.036 165.977 693.708C165.355 693.368 164.418 693.075 163.164 692.829C162.109 692.606 161.154 692.342 160.299 692.038C159.455 691.733 158.734 691.364 158.137 690.93C157.551 690.497 157.1 689.987 156.783 689.401C156.467 688.815 156.309 688.129 156.309 687.344C156.309 686.594 156.473 685.885 156.801 685.217C157.141 684.549 157.615 683.958 158.225 683.442C158.846 682.926 159.59 682.522 160.457 682.229C161.324 681.936 162.291 681.79 163.357 681.79C164.881 681.79 166.182 682.059 167.26 682.598C168.338 683.137 169.164 683.858 169.738 684.76C170.312 685.651 170.6 686.641 170.6 687.731H167.348C167.348 687.204 167.189 686.694 166.873 686.202C166.568 685.698 166.117 685.282 165.52 684.954C164.934 684.625 164.213 684.461 163.357 684.461C162.455 684.461 161.723 684.602 161.16 684.883C160.609 685.153 160.205 685.499 159.947 685.92C159.701 686.342 159.578 686.788 159.578 687.256C159.578 687.608 159.637 687.924 159.754 688.206C159.883 688.475 160.105 688.727 160.422 688.961C160.738 689.184 161.184 689.395 161.758 689.594C162.332 689.793 163.064 689.993 163.955 690.192C165.514 690.543 166.797 690.965 167.805 691.458C168.812 691.95 169.562 692.553 170.055 693.268C170.547 693.983 170.793 694.85 170.793 695.87C170.793 696.702 170.617 697.463 170.266 698.155C169.926 698.846 169.428 699.444 168.771 699.948C168.127 700.44 167.354 700.827 166.451 701.108C165.561 701.377 164.559 701.512 163.445 701.512C161.77 701.512 160.352 701.213 159.191 700.616C158.031 700.018 157.152 699.245 156.555 698.295C155.957 697.346 155.658 696.344 155.658 695.29H158.928C158.975 696.18 159.232 696.889 159.701 697.417C160.17 697.932 160.744 698.301 161.424 698.524C162.104 698.735 162.777 698.84 163.445 698.84C164.336 698.84 165.08 698.723 165.678 698.489C166.287 698.254 166.75 697.932 167.066 697.522C167.383 697.112 167.541 696.643 167.541 696.116ZM183.027 682.141V684.637H172.744V682.141H183.027ZM176.225 677.518H179.477V696.45C179.477 697.094 179.576 697.581 179.775 697.909C179.975 698.237 180.232 698.454 180.549 698.559C180.865 698.665 181.205 698.717 181.568 698.717C181.838 698.717 182.119 698.694 182.412 698.647C182.717 698.588 182.945 698.542 183.098 698.506L183.115 701.161C182.857 701.243 182.518 701.319 182.096 701.389C181.686 701.471 181.188 701.512 180.602 701.512C179.805 701.512 179.072 701.354 178.404 701.038C177.736 700.721 177.203 700.194 176.805 699.456C176.418 698.706 176.225 697.698 176.225 696.432V677.518ZM185.629 691.862V691.458C185.629 690.086 185.828 688.815 186.227 687.643C186.625 686.459 187.199 685.434 187.949 684.567C188.699 683.688 189.607 683.008 190.674 682.528C191.74 682.036 192.936 681.79 194.26 681.79C195.596 681.79 196.797 682.036 197.863 682.528C198.941 683.008 199.855 683.688 200.605 684.567C201.367 685.434 201.947 686.459 202.346 687.643C202.744 688.815 202.943 690.086 202.943 691.458V691.862C202.943 693.233 202.744 694.504 202.346 695.676C201.947 696.848 201.367 697.874 200.605 698.752C199.855 699.62 198.947 700.299 197.881 700.792C196.826 701.272 195.631 701.512 194.295 701.512C192.959 701.512 191.758 701.272 190.691 700.792C189.625 700.299 188.711 699.62 187.949 698.752C187.199 697.874 186.625 696.848 186.227 695.676C185.828 694.504 185.629 693.233 185.629 691.862ZM188.881 691.458V691.862C188.881 692.811 188.992 693.708 189.215 694.551C189.438 695.383 189.771 696.122 190.217 696.766C190.674 697.411 191.242 697.92 191.922 698.295C192.602 698.659 193.393 698.84 194.295 698.84C195.186 698.84 195.965 698.659 196.633 698.295C197.312 697.92 197.875 697.411 198.32 696.766C198.766 696.122 199.1 695.383 199.322 694.551C199.557 693.708 199.674 692.811 199.674 691.862V691.458C199.674 690.52 199.557 689.635 199.322 688.803C199.1 687.959 198.76 687.215 198.303 686.571C197.857 685.915 197.295 685.399 196.615 685.024C195.947 684.649 195.162 684.461 194.26 684.461C193.369 684.461 192.584 684.649 191.904 685.024C191.236 685.399 190.674 685.915 190.217 686.571C189.771 687.215 189.438 687.959 189.215 688.803C188.992 689.635 188.881 690.52 188.881 691.458ZM210.273 685.129V701.161H207.021V682.141H210.186L210.273 685.129ZM216.215 682.036L216.197 685.059C215.928 685 215.67 684.965 215.424 684.954C215.189 684.93 214.92 684.918 214.615 684.918C213.865 684.918 213.203 685.036 212.629 685.27C212.055 685.504 211.568 685.833 211.17 686.254C210.771 686.676 210.455 687.18 210.221 687.766C209.998 688.34 209.852 688.973 209.781 689.665L208.867 690.192C208.867 689.043 208.979 687.965 209.201 686.958C209.436 685.95 209.793 685.059 210.273 684.286C210.754 683.5 211.363 682.891 212.102 682.458C212.852 682.012 213.742 681.79 214.773 681.79C215.008 681.79 215.277 681.819 215.582 681.877C215.887 681.924 216.098 681.977 216.215 682.036Z" fill="#333333"/>
<path d="M109.406 643.295V647.689H89.9531V643.939L99.1523 634.076C100.077 633.047 100.806 632.142 101.34 631.361C101.874 630.567 102.258 629.857 102.492 629.232C102.74 628.594 102.863 627.989 102.863 627.416C102.863 626.556 102.72 625.821 102.434 625.209C102.147 624.584 101.724 624.102 101.164 623.763C100.617 623.425 99.9401 623.256 99.1328 623.256C98.2734 623.256 97.5312 623.464 96.9062 623.881C96.2943 624.297 95.8255 624.877 95.5 625.619C95.1875 626.361 95.0312 627.201 95.0312 628.138H89.3867C89.3867 626.446 89.7904 624.896 90.5977 623.49C91.4049 622.071 92.5443 620.944 94.0156 620.111C95.487 619.265 97.2318 618.842 99.25 618.842C101.242 618.842 102.922 619.167 104.289 619.818C105.669 620.456 106.711 621.381 107.414 622.592C108.13 623.789 108.488 625.222 108.488 626.888C108.488 627.826 108.339 628.744 108.039 629.642C107.74 630.528 107.31 631.413 106.75 632.299C106.203 633.171 105.539 634.056 104.758 634.955C103.977 635.853 103.111 636.784 102.16 637.748L97.2188 643.295H109.406ZM132.062 630.97V635.892C132.062 638.028 131.835 639.87 131.379 641.42C130.923 642.956 130.266 644.219 129.406 645.209C128.56 646.185 127.551 646.908 126.379 647.377C125.207 647.845 123.905 648.08 122.473 648.08C121.327 648.08 120.259 647.937 119.27 647.65C118.28 647.351 117.388 646.888 116.594 646.263C115.812 645.638 115.135 644.851 114.562 643.9C114.003 642.937 113.573 641.791 113.273 640.463C112.974 639.135 112.824 637.611 112.824 635.892V630.97C112.824 628.835 113.052 627.006 113.508 625.482C113.977 623.946 114.634 622.689 115.48 621.713C116.34 620.736 117.355 620.02 118.527 619.564C119.699 619.095 121.001 618.861 122.434 618.861C123.579 618.861 124.641 619.011 125.617 619.31C126.607 619.597 127.499 620.046 128.293 620.658C129.087 621.27 129.764 622.058 130.324 623.021C130.884 623.972 131.314 625.111 131.613 626.439C131.913 627.754 132.062 629.265 132.062 630.97ZM126.418 636.635V630.209C126.418 629.18 126.359 628.282 126.242 627.513C126.138 626.745 125.975 626.094 125.754 625.56C125.533 625.013 125.259 624.571 124.934 624.232C124.608 623.894 124.237 623.646 123.82 623.49C123.404 623.334 122.941 623.256 122.434 623.256C121.796 623.256 121.229 623.379 120.734 623.627C120.253 623.874 119.842 624.271 119.504 624.818C119.165 625.352 118.905 626.068 118.723 626.967C118.553 627.852 118.469 628.933 118.469 630.209V636.635C118.469 637.663 118.521 638.568 118.625 639.349C118.742 640.131 118.911 640.801 119.133 641.361C119.367 641.908 119.641 642.357 119.953 642.709C120.279 643.047 120.65 643.295 121.066 643.451C121.496 643.607 121.965 643.685 122.473 643.685C123.098 643.685 123.651 643.562 124.133 643.314C124.628 643.054 125.044 642.65 125.383 642.103C125.734 641.543 125.995 640.814 126.164 639.916C126.333 639.017 126.418 637.924 126.418 636.635ZM135.812 626.224V624.72C135.812 623.64 136.047 622.657 136.516 621.771C136.984 620.886 137.674 620.176 138.586 619.642C139.497 619.108 140.617 618.842 141.945 618.842C143.312 618.842 144.452 619.108 145.363 619.642C146.288 620.176 146.978 620.886 147.434 621.771C147.902 622.657 148.137 623.64 148.137 624.72V626.224C148.137 627.279 147.902 628.249 147.434 629.135C146.978 630.02 146.294 630.73 145.383 631.263C144.471 631.797 143.345 632.064 142.004 632.064C140.65 632.064 139.51 631.797 138.586 631.263C137.674 630.73 136.984 630.02 136.516 629.135C136.047 628.249 135.812 627.279 135.812 626.224ZM139.543 624.72V626.224C139.543 626.68 139.628 627.116 139.797 627.533C139.979 627.937 140.253 628.269 140.617 628.529C140.995 628.776 141.451 628.9 141.984 628.9C142.544 628.9 143 628.776 143.352 628.529C143.703 628.269 143.964 627.937 144.133 627.533C144.302 627.116 144.387 626.68 144.387 626.224V624.72C144.387 624.239 144.296 623.796 144.113 623.392C143.944 622.976 143.677 622.644 143.312 622.396C142.961 622.136 142.505 622.006 141.945 622.006C141.424 622.006 140.982 622.136 140.617 622.396C140.253 622.644 139.979 622.976 139.797 623.392C139.628 623.796 139.543 624.239 139.543 624.72ZM149.406 642.22V640.717C149.406 639.649 149.641 638.672 150.109 637.787C150.591 636.901 151.288 636.192 152.199 635.658C153.124 635.124 154.257 634.857 155.598 634.857C156.952 634.857 158.085 635.124 158.996 635.658C159.908 636.192 160.598 636.901 161.066 637.787C161.535 638.672 161.77 639.649 161.77 640.717V642.22C161.77 643.288 161.535 644.265 161.066 645.15C160.611 646.036 159.927 646.745 159.016 647.279C158.104 647.813 156.978 648.08 155.637 648.08C154.283 648.08 153.143 647.813 152.219 647.279C151.294 646.745 150.591 646.036 150.109 645.15C149.641 644.265 149.406 643.288 149.406 642.22ZM153.156 640.717V642.22C153.156 642.689 153.26 643.132 153.469 643.549C153.677 643.965 153.964 644.297 154.328 644.545C154.706 644.792 155.142 644.916 155.637 644.916C156.262 644.916 156.75 644.792 157.102 644.545C157.453 644.297 157.694 643.965 157.824 643.549C157.967 643.132 158.039 642.689 158.039 642.22V640.717C158.039 640.248 157.948 639.812 157.766 639.408C157.583 638.991 157.31 638.659 156.945 638.412C156.594 638.151 156.145 638.021 155.598 638.021C155.051 638.021 154.595 638.151 154.23 638.412C153.879 638.659 153.612 638.991 153.43 639.408C153.247 639.812 153.156 640.248 153.156 640.717ZM156.984 623.314L143.098 645.541L140.363 644.095L154.25 621.869L156.984 623.314Z" fill="#09721A"/>
<path d="M62.375 379.926H65.375C65.2188 381.364 64.8073 382.65 64.1406 383.786C63.474 384.921 62.5312 385.822 61.3125 386.489C60.0938 387.145 58.5729 387.473 56.75 387.473C55.4167 387.473 54.2031 387.223 53.1094 386.723C52.026 386.223 51.0938 385.515 50.3125 384.598C49.5312 383.671 48.9271 382.562 48.5 381.27C48.0833 379.968 47.875 378.52 47.875 376.926V374.661C47.875 373.067 48.0833 371.624 48.5 370.333C48.9271 369.03 49.5365 367.916 50.3281 366.989C51.1302 366.062 52.0938 365.348 53.2188 364.848C54.3438 364.348 55.6094 364.098 57.0156 364.098C58.7344 364.098 60.1875 364.421 61.375 365.067C62.5625 365.713 63.4844 366.609 64.1406 367.754C64.8073 368.89 65.2188 370.208 65.375 371.708H62.375C62.2292 370.645 61.9583 369.734 61.5625 368.973C61.1667 368.202 60.6042 367.609 59.875 367.192C59.1458 366.775 58.1927 366.567 57.0156 366.567C56.0052 366.567 55.1146 366.76 54.3438 367.145C53.5833 367.53 52.9427 368.077 52.4219 368.786C51.9115 369.494 51.526 370.343 51.2656 371.333C51.0052 372.322 50.875 373.421 50.875 374.629V376.926C50.875 378.041 50.9896 379.088 51.2188 380.067C51.4583 381.046 51.8177 381.905 52.2969 382.645C52.776 383.385 53.3854 383.968 54.125 384.395C54.8646 384.812 55.7396 385.02 56.75 385.02C58.0312 385.02 59.0521 384.817 59.8125 384.411C60.5729 384.004 61.1458 383.421 61.5312 382.661C61.9271 381.9 62.2083 380.989 62.375 379.926ZM68.2812 378.895V378.536C68.2812 377.317 68.4583 376.187 68.8125 375.145C69.1667 374.093 69.6771 373.181 70.3438 372.411C71.0104 371.629 71.8177 371.025 72.7656 370.598C73.7135 370.161 74.776 369.942 75.9531 369.942C77.1406 369.942 78.2083 370.161 79.1562 370.598C80.1146 371.025 80.9271 371.629 81.5938 372.411C82.2708 373.181 82.7865 374.093 83.1406 375.145C83.4948 376.187 83.6719 377.317 83.6719 378.536V378.895C83.6719 380.114 83.4948 381.244 83.1406 382.286C82.7865 383.327 82.2708 384.239 81.5938 385.02C80.9271 385.791 80.1198 386.395 79.1719 386.833C78.2344 387.26 77.1719 387.473 75.9844 387.473C74.7969 387.473 73.7292 387.26 72.7812 386.833C71.8333 386.395 71.0208 385.791 70.3438 385.02C69.6771 384.239 69.1667 383.327 68.8125 382.286C68.4583 381.244 68.2812 380.114 68.2812 378.895ZM71.1719 378.536V378.895C71.1719 379.739 71.2708 380.536 71.4688 381.286C71.6667 382.025 71.9635 382.681 72.3594 383.254C72.7656 383.827 73.2708 384.28 73.875 384.614C74.4792 384.937 75.1823 385.098 75.9844 385.098C76.776 385.098 77.4688 384.937 78.0625 384.614C78.6667 384.28 79.1667 383.827 79.5625 383.254C79.9583 382.681 80.2552 382.025 80.4531 381.286C80.6615 380.536 80.7656 379.739 80.7656 378.895V378.536C80.7656 377.702 80.6615 376.916 80.4531 376.176C80.2552 375.426 79.9531 374.765 79.5469 374.192C79.151 373.609 78.651 373.15 78.0469 372.817C77.4531 372.484 76.7552 372.317 75.9531 372.317C75.1615 372.317 74.4635 372.484 73.8594 372.817C73.2656 373.15 72.7656 373.609 72.3594 374.192C71.9635 374.765 71.6667 375.426 71.4688 376.176C71.2708 376.916 71.1719 377.702 71.1719 378.536ZM90.1719 373.614V387.161H87.2656V370.254H90.0156L90.1719 373.614ZM89.5781 378.067L88.2344 378.02C88.2448 376.864 88.3958 375.796 88.6875 374.817C88.9792 373.827 89.4115 372.968 89.9844 372.239C90.5573 371.51 91.2708 370.947 92.125 370.551C92.9792 370.145 93.9688 369.942 95.0938 369.942C95.8854 369.942 96.6146 370.056 97.2812 370.286C97.9479 370.504 98.526 370.853 99.0156 371.333C99.5052 371.812 99.8854 372.426 100.156 373.176C100.427 373.926 100.562 374.833 100.562 375.895V387.161H97.6719V376.036C97.6719 375.15 97.5208 374.442 97.2188 373.911C96.9271 373.379 96.5104 372.994 95.9688 372.754C95.4271 372.504 94.7917 372.379 94.0625 372.379C93.2083 372.379 92.4948 372.53 91.9219 372.833C91.349 373.135 90.8906 373.551 90.5469 374.083C90.2031 374.614 89.9531 375.223 89.7969 375.911C89.651 376.588 89.5781 377.306 89.5781 378.067ZM100.531 376.473L98.5938 377.067C98.6042 376.14 98.7552 375.249 99.0469 374.395C99.349 373.541 99.7812 372.78 100.344 372.114C100.917 371.447 101.62 370.921 102.453 370.536C103.286 370.14 104.24 369.942 105.312 369.942C106.219 369.942 107.021 370.062 107.719 370.301C108.427 370.541 109.021 370.911 109.5 371.411C109.99 371.9 110.359 372.53 110.609 373.301C110.859 374.072 110.984 374.989 110.984 376.051V387.161H108.078V376.02C108.078 375.072 107.927 374.338 107.625 373.817C107.333 373.286 106.917 372.916 106.375 372.708C105.844 372.489 105.208 372.379 104.469 372.379C103.833 372.379 103.271 372.489 102.781 372.708C102.292 372.926 101.88 373.228 101.547 373.614C101.214 373.989 100.958 374.421 100.781 374.911C100.615 375.4 100.531 375.921 100.531 376.473ZM118.234 373.614V387.161H115.328V370.254H118.078L118.234 373.614ZM117.641 378.067L116.297 378.02C116.307 376.864 116.458 375.796 116.75 374.817C117.042 373.827 117.474 372.968 118.047 372.239C118.62 371.51 119.333 370.947 120.188 370.551C121.042 370.145 122.031 369.942 123.156 369.942C123.948 369.942 124.677 370.056 125.344 370.286C126.01 370.504 126.589 370.853 127.078 371.333C127.568 371.812 127.948 372.426 128.219 373.176C128.49 373.926 128.625 374.833 128.625 375.895V387.161H125.734V376.036C125.734 375.15 125.583 374.442 125.281 373.911C124.99 373.379 124.573 372.994 124.031 372.754C123.49 372.504 122.854 372.379 122.125 372.379C121.271 372.379 120.557 372.53 119.984 372.833C119.411 373.135 118.953 373.551 118.609 374.083C118.266 374.614 118.016 375.223 117.859 375.911C117.714 376.588 117.641 377.306 117.641 378.067ZM128.594 376.473L126.656 377.067C126.667 376.14 126.818 375.249 127.109 374.395C127.411 373.541 127.844 372.78 128.406 372.114C128.979 371.447 129.682 370.921 130.516 370.536C131.349 370.14 132.302 369.942 133.375 369.942C134.281 369.942 135.083 370.062 135.781 370.301C136.49 370.541 137.083 370.911 137.562 371.411C138.052 371.9 138.422 372.53 138.672 373.301C138.922 374.072 139.047 374.989 139.047 376.051V387.161H136.141V376.02C136.141 375.072 135.99 374.338 135.688 373.817C135.396 373.286 134.979 372.916 134.438 372.708C133.906 372.489 133.271 372.379 132.531 372.379C131.896 372.379 131.333 372.489 130.844 372.708C130.354 372.926 129.943 373.228 129.609 373.614C129.276 373.989 129.021 374.421 128.844 374.911C128.677 375.4 128.594 375.921 128.594 376.473ZM153.766 383.254V370.254H156.672V387.161H153.906L153.766 383.254ZM154.312 379.692L155.516 379.661C155.516 380.786 155.396 381.827 155.156 382.786C154.927 383.734 154.552 384.556 154.031 385.254C153.51 385.952 152.828 386.499 151.984 386.895C151.141 387.28 150.115 387.473 148.906 387.473C148.083 387.473 147.328 387.353 146.641 387.114C145.964 386.874 145.38 386.504 144.891 386.004C144.401 385.504 144.021 384.853 143.75 384.051C143.49 383.249 143.359 382.286 143.359 381.161V370.254H146.25V381.192C146.25 381.952 146.333 382.583 146.5 383.083C146.677 383.572 146.911 383.963 147.203 384.254C147.505 384.536 147.839 384.734 148.203 384.848C148.578 384.963 148.964 385.02 149.359 385.02C150.589 385.02 151.562 384.786 152.281 384.317C153 383.838 153.516 383.197 153.828 382.395C154.151 381.583 154.312 380.681 154.312 379.692ZM163.969 373.864V387.161H161.078V370.254H163.812L163.969 373.864ZM163.281 378.067L162.078 378.02C162.089 376.864 162.26 375.796 162.594 374.817C162.927 373.827 163.396 372.968 164 372.239C164.604 371.51 165.323 370.947 166.156 370.551C167 370.145 167.932 369.942 168.953 369.942C169.786 369.942 170.536 370.056 171.203 370.286C171.87 370.504 172.438 370.859 172.906 371.348C173.385 371.838 173.75 372.473 174 373.254C174.25 374.025 174.375 374.968 174.375 376.083V387.161H171.469V376.051C171.469 375.166 171.339 374.458 171.078 373.926C170.818 373.385 170.438 372.994 169.938 372.754C169.438 372.504 168.823 372.379 168.094 372.379C167.375 372.379 166.719 372.53 166.125 372.833C165.542 373.135 165.036 373.551 164.609 374.083C164.193 374.614 163.865 375.223 163.625 375.911C163.396 376.588 163.281 377.306 163.281 378.067ZM181.906 370.254V387.161H179V370.254H181.906ZM178.781 365.77C178.781 365.301 178.922 364.905 179.203 364.583C179.495 364.26 179.922 364.098 180.484 364.098C181.036 364.098 181.458 364.26 181.75 364.583C182.052 364.905 182.203 365.301 182.203 365.77C182.203 366.218 182.052 366.603 181.75 366.926C181.458 367.239 181.036 367.395 180.484 367.395C179.922 367.395 179.495 367.239 179.203 366.926C178.922 366.603 178.781 366.218 178.781 365.77ZM193.625 370.254V372.473H184.484V370.254H193.625ZM187.578 366.145H190.469V382.973C190.469 383.546 190.557 383.978 190.734 384.27C190.911 384.562 191.141 384.754 191.422 384.848C191.703 384.942 192.005 384.989 192.328 384.989C192.568 384.989 192.818 384.968 193.078 384.926C193.349 384.874 193.552 384.833 193.688 384.801L193.703 387.161C193.474 387.234 193.172 387.301 192.797 387.364C192.432 387.437 191.99 387.473 191.469 387.473C190.76 387.473 190.109 387.333 189.516 387.051C188.922 386.77 188.448 386.301 188.094 385.645C187.75 384.978 187.578 384.083 187.578 382.958V366.145ZM201.766 385.411L206.469 370.254H209.562L202.781 389.77C202.625 390.187 202.417 390.635 202.156 391.114C201.906 391.603 201.583 392.067 201.188 392.504C200.792 392.942 200.312 393.296 199.75 393.567C199.198 393.848 198.536 393.989 197.766 393.989C197.536 393.989 197.245 393.958 196.891 393.895C196.536 393.833 196.286 393.78 196.141 393.739L196.125 391.395C196.208 391.405 196.339 391.416 196.516 391.426C196.703 391.447 196.833 391.458 196.906 391.458C197.562 391.458 198.12 391.369 198.578 391.192C199.036 391.025 199.422 390.739 199.734 390.333C200.057 389.937 200.333 389.39 200.562 388.692L201.766 385.411ZM198.312 370.254L202.703 383.379L203.453 386.426L201.375 387.489L195.156 370.254H198.312Z" fill="#333333"/>
<path d="M61.6641 307.052V335.548H56.0391V313.536L49.2812 315.685V311.251L61.0586 307.052H61.6641ZM76.2148 322.599L71.7227 321.524L73.3438 307.11H89.3203V311.661H77.9727L77.2695 317.97C77.6471 317.748 78.2201 317.514 78.9883 317.267C79.7565 317.006 80.6159 316.876 81.5664 316.876C82.9466 316.876 84.1706 317.091 85.2383 317.521C86.306 317.95 87.2109 318.575 87.9531 319.396C88.7083 320.216 89.2812 321.218 89.6719 322.403C90.0625 323.588 90.2578 324.929 90.2578 326.427C90.2578 327.69 90.0625 328.894 89.6719 330.04C89.2812 331.173 88.6888 332.188 87.8945 333.087C87.1003 333.972 86.1042 334.669 84.9062 335.177C83.7083 335.685 82.2891 335.938 80.6484 335.938C79.4245 335.938 78.2396 335.756 77.0938 335.392C75.9609 335.027 74.9388 334.487 74.0273 333.771C73.1289 333.054 72.4062 332.188 71.8594 331.173C71.3255 330.144 71.0456 328.972 71.0195 327.657H76.6055C76.6836 328.465 76.8919 329.161 77.2305 329.747C77.582 330.32 78.0443 330.763 78.6172 331.075C79.1901 331.388 79.8607 331.544 80.6289 331.544C81.3451 331.544 81.957 331.407 82.4648 331.134C82.9727 330.86 83.3828 330.483 83.6953 330.001C84.0078 329.506 84.2357 328.933 84.3789 328.282C84.5352 327.618 84.6133 326.902 84.6133 326.134C84.6133 325.366 84.5221 324.669 84.3398 324.044C84.1576 323.419 83.8776 322.879 83.5 322.423C83.1224 321.967 82.6406 321.616 82.0547 321.368C81.4818 321.121 80.8112 320.997 80.043 320.997C79.0013 320.997 78.194 321.16 77.6211 321.485C77.0612 321.811 76.5924 322.182 76.2148 322.599ZM93.8125 314.083V312.579C93.8125 311.498 94.0469 310.515 94.5156 309.63C94.9844 308.744 95.6745 308.035 96.5859 307.501C97.4974 306.967 98.6172 306.7 99.9453 306.7C101.312 306.7 102.452 306.967 103.363 307.501C104.288 308.035 104.978 308.744 105.434 309.63C105.902 310.515 106.137 311.498 106.137 312.579V314.083C106.137 315.138 105.902 316.108 105.434 316.993C104.978 317.879 104.294 318.588 103.383 319.122C102.471 319.656 101.345 319.923 100.004 319.923C98.6497 319.923 97.5104 319.656 96.5859 319.122C95.6745 318.588 94.9844 317.879 94.5156 316.993C94.0469 316.108 93.8125 315.138 93.8125 314.083ZM97.543 312.579V314.083C97.543 314.539 97.6276 314.975 97.7969 315.392C97.9792 315.795 98.2526 316.127 98.6172 316.388C98.9948 316.635 99.4505 316.759 99.9844 316.759C100.544 316.759 101 316.635 101.352 316.388C101.703 316.127 101.964 315.795 102.133 315.392C102.302 314.975 102.387 314.539 102.387 314.083V312.579C102.387 312.097 102.296 311.655 102.113 311.251C101.944 310.834 101.677 310.502 101.312 310.255C100.961 309.994 100.505 309.864 99.9453 309.864C99.4245 309.864 98.9818 309.994 98.6172 310.255C98.2526 310.502 97.9792 310.834 97.7969 311.251C97.6276 311.655 97.543 312.097 97.543 312.579ZM107.406 330.079V328.575C107.406 327.507 107.641 326.531 108.109 325.646C108.591 324.76 109.288 324.05 110.199 323.517C111.124 322.983 112.257 322.716 113.598 322.716C114.952 322.716 116.085 322.983 116.996 323.517C117.908 324.05 118.598 324.76 119.066 325.646C119.535 326.531 119.77 327.507 119.77 328.575V330.079C119.77 331.147 119.535 332.123 119.066 333.009C118.611 333.894 117.927 334.604 117.016 335.138C116.104 335.672 114.978 335.938 113.637 335.938C112.283 335.938 111.143 335.672 110.219 335.138C109.294 334.604 108.591 333.894 108.109 333.009C107.641 332.123 107.406 331.147 107.406 330.079ZM111.156 328.575V330.079C111.156 330.548 111.26 330.991 111.469 331.407C111.677 331.824 111.964 332.156 112.328 332.403C112.706 332.651 113.142 332.774 113.637 332.774C114.262 332.774 114.75 332.651 115.102 332.403C115.453 332.156 115.694 331.824 115.824 331.407C115.967 330.991 116.039 330.548 116.039 330.079V328.575C116.039 328.106 115.948 327.67 115.766 327.267C115.583 326.85 115.31 326.518 114.945 326.271C114.594 326.01 114.145 325.88 113.598 325.88C113.051 325.88 112.595 326.01 112.23 326.271C111.879 326.518 111.612 326.85 111.43 327.267C111.247 327.67 111.156 328.106 111.156 328.575ZM114.984 311.173L101.098 333.399L98.3633 331.954L112.25 309.728L114.984 311.173Z" fill="#09721A"/>
<path d="M99.0469 110.868V133.618H96.0781V110.868H99.0469ZM106.359 110.868V113.337H88.7812V110.868H106.359ZM114.75 133.931C113.573 133.931 112.505 133.733 111.547 133.337C110.599 132.931 109.781 132.363 109.094 131.634C108.417 130.905 107.896 130.04 107.531 129.04C107.167 128.04 106.984 126.947 106.984 125.759V125.103C106.984 123.728 107.188 122.504 107.594 121.431C108 120.348 108.552 119.431 109.25 118.681C109.948 117.931 110.74 117.363 111.625 116.978C112.51 116.592 113.427 116.4 114.375 116.4C115.583 116.4 116.625 116.608 117.5 117.025C118.385 117.441 119.109 118.025 119.672 118.775C120.234 119.514 120.651 120.389 120.922 121.4C121.193 122.4 121.328 123.493 121.328 124.681V125.978H108.703V123.618H118.438V123.4C118.396 122.65 118.24 121.921 117.969 121.212C117.708 120.504 117.292 119.921 116.719 119.462C116.146 119.004 115.365 118.775 114.375 118.775C113.719 118.775 113.115 118.915 112.562 119.197C112.01 119.467 111.536 119.874 111.141 120.415C110.745 120.957 110.438 121.618 110.219 122.4C110 123.181 109.891 124.082 109.891 125.103V125.759C109.891 126.561 110 127.316 110.219 128.025C110.448 128.723 110.776 129.337 111.203 129.868C111.641 130.4 112.167 130.816 112.781 131.118C113.406 131.421 114.115 131.572 114.906 131.572C115.927 131.572 116.792 131.363 117.5 130.947C118.208 130.53 118.828 129.973 119.359 129.275L121.109 130.665C120.745 131.217 120.281 131.743 119.719 132.243C119.156 132.743 118.464 133.15 117.641 133.462C116.828 133.775 115.865 133.931 114.75 133.931ZM134.672 130.728V122.025C134.672 121.358 134.536 120.78 134.266 120.29C134.005 119.79 133.609 119.405 133.078 119.134C132.547 118.863 131.891 118.728 131.109 118.728C130.38 118.728 129.74 118.853 129.188 119.103C128.646 119.353 128.219 119.681 127.906 120.087C127.604 120.493 127.453 120.931 127.453 121.4H124.562C124.562 120.796 124.719 120.197 125.031 119.603C125.344 119.009 125.792 118.473 126.375 117.993C126.969 117.504 127.677 117.118 128.5 116.837C129.333 116.546 130.26 116.4 131.281 116.4C132.51 116.4 133.594 116.608 134.531 117.025C135.479 117.441 136.219 118.072 136.75 118.915C137.292 119.749 137.562 120.796 137.562 122.056V129.931C137.562 130.493 137.609 131.092 137.703 131.728C137.807 132.363 137.958 132.91 138.156 133.368V133.618H135.141C134.995 133.285 134.88 132.842 134.797 132.29C134.714 131.728 134.672 131.207 134.672 130.728ZM135.172 123.368L135.203 125.4H132.281C131.458 125.4 130.724 125.467 130.078 125.603C129.432 125.728 128.891 125.921 128.453 126.181C128.016 126.441 127.682 126.77 127.453 127.165C127.224 127.551 127.109 128.004 127.109 128.525C127.109 129.056 127.229 129.54 127.469 129.978C127.708 130.415 128.068 130.764 128.547 131.025C129.036 131.275 129.635 131.4 130.344 131.4C131.229 131.4 132.01 131.212 132.688 130.837C133.365 130.462 133.901 130.004 134.297 129.462C134.703 128.921 134.922 128.395 134.953 127.884L136.188 129.275C136.115 129.712 135.917 130.197 135.594 130.728C135.271 131.259 134.839 131.77 134.297 132.259C133.766 132.738 133.13 133.139 132.391 133.462C131.661 133.775 130.839 133.931 129.922 133.931C128.776 133.931 127.771 133.707 126.906 133.259C126.052 132.811 125.385 132.212 124.906 131.462C124.438 130.702 124.203 129.853 124.203 128.915C124.203 128.009 124.38 127.212 124.734 126.525C125.089 125.827 125.599 125.249 126.266 124.79C126.932 124.322 127.734 123.967 128.672 123.728C129.609 123.488 130.656 123.368 131.812 123.368H135.172ZM144.984 120.072V133.618H142.078V116.712H144.828L144.984 120.072ZM144.391 124.525L143.047 124.478C143.057 123.322 143.208 122.254 143.5 121.275C143.792 120.285 144.224 119.426 144.797 118.697C145.37 117.967 146.083 117.405 146.938 117.009C147.792 116.603 148.781 116.4 149.906 116.4C150.698 116.4 151.427 116.514 152.094 116.743C152.76 116.962 153.339 117.311 153.828 117.79C154.318 118.27 154.698 118.884 154.969 119.634C155.24 120.384 155.375 121.29 155.375 122.353V133.618H152.484V122.493C152.484 121.608 152.333 120.9 152.031 120.368C151.74 119.837 151.323 119.452 150.781 119.212C150.24 118.962 149.604 118.837 148.875 118.837C148.021 118.837 147.307 118.988 146.734 119.29C146.161 119.592 145.703 120.009 145.359 120.54C145.016 121.072 144.766 121.681 144.609 122.368C144.464 123.046 144.391 123.764 144.391 124.525ZM155.344 122.931L153.406 123.525C153.417 122.598 153.568 121.707 153.859 120.853C154.161 119.999 154.594 119.238 155.156 118.572C155.729 117.905 156.432 117.379 157.266 116.993C158.099 116.598 159.052 116.4 160.125 116.4C161.031 116.4 161.833 116.52 162.531 116.759C163.24 116.999 163.833 117.368 164.312 117.868C164.802 118.358 165.172 118.988 165.422 119.759C165.672 120.53 165.797 121.447 165.797 122.509V133.618H162.891V122.478C162.891 121.53 162.74 120.796 162.438 120.275C162.146 119.743 161.729 119.374 161.188 119.165C160.656 118.947 160.021 118.837 159.281 118.837C158.646 118.837 158.083 118.947 157.594 119.165C157.104 119.384 156.693 119.686 156.359 120.072C156.026 120.447 155.771 120.879 155.594 121.368C155.427 121.858 155.344 122.379 155.344 122.931Z" fill="#333333"/>
<path d="M103.664 53.1338V81.6299H98.0391V59.6182L91.2812 61.7666V57.333L103.059 53.1338H103.664ZM132.062 64.9111V69.833C132.062 71.9684 131.835 73.8109 131.379 75.3604C130.923 76.8968 130.266 78.1598 129.406 79.1494C128.56 80.126 127.551 80.8486 126.379 81.3174C125.207 81.7861 123.905 82.0205 122.473 82.0205C121.327 82.0205 120.259 81.8773 119.27 81.5908C118.28 81.2913 117.388 80.8291 116.594 80.2041C115.812 79.5791 115.135 78.7913 114.562 77.8408C114.003 76.8773 113.573 75.7314 113.273 74.4033C112.974 73.0752 112.824 71.5518 112.824 69.833V64.9111C112.824 62.7757 113.052 60.9463 113.508 59.4229C113.977 57.8864 114.634 56.6299 115.48 55.6533C116.34 54.6768 117.355 53.9606 118.527 53.5049C119.699 53.0361 121.001 52.8018 122.434 52.8018C123.579 52.8018 124.641 52.9515 125.617 53.251C126.607 53.5374 127.499 53.9867 128.293 54.5986C129.087 55.2106 129.764 55.9984 130.324 56.9619C130.884 57.9124 131.314 59.0518 131.613 60.3799C131.913 61.695 132.062 63.2054 132.062 64.9111ZM126.418 70.5752V64.1494C126.418 63.1208 126.359 62.2223 126.242 61.4541C126.138 60.6859 125.975 60.0348 125.754 59.501C125.533 58.9541 125.259 58.5114 124.934 58.1729C124.608 57.8343 124.237 57.5869 123.82 57.4307C123.404 57.2744 122.941 57.1963 122.434 57.1963C121.796 57.1963 121.229 57.32 120.734 57.5674C120.253 57.8148 119.842 58.2119 119.504 58.7588C119.165 59.2926 118.905 60.0088 118.723 60.9072C118.553 61.7926 118.469 62.8734 118.469 64.1494V70.5752C118.469 71.6038 118.521 72.5088 118.625 73.29C118.742 74.0713 118.911 74.7419 119.133 75.3018C119.367 75.8486 119.641 76.2979 119.953 76.6494C120.279 76.988 120.65 77.2354 121.066 77.3916C121.496 77.5479 121.965 77.626 122.473 77.626C123.098 77.626 123.651 77.5023 124.133 77.2549C124.628 76.9945 125.044 76.5908 125.383 76.0439C125.734 75.484 125.995 74.7549 126.164 73.8564C126.333 72.958 126.418 71.8643 126.418 70.5752ZM135.812 60.165V58.6611C135.812 57.5804 136.047 56.5973 136.516 55.7119C136.984 54.8265 137.674 54.1169 138.586 53.583C139.497 53.0492 140.617 52.7822 141.945 52.7822C143.312 52.7822 144.452 53.0492 145.363 53.583C146.288 54.1169 146.978 54.8265 147.434 55.7119C147.902 56.5973 148.137 57.5804 148.137 58.6611V60.165C148.137 61.2197 147.902 62.1898 147.434 63.0752C146.978 63.9606 146.294 64.6702 145.383 65.2041C144.471 65.738 143.345 66.0049 142.004 66.0049C140.65 66.0049 139.51 65.738 138.586 65.2041C137.674 64.6702 136.984 63.9606 136.516 63.0752C136.047 62.1898 135.812 61.2197 135.812 60.165ZM139.543 58.6611V60.165C139.543 60.6208 139.628 61.057 139.797 61.4736C139.979 61.8773 140.253 62.2093 140.617 62.4697C140.995 62.7171 141.451 62.8408 141.984 62.8408C142.544 62.8408 143 62.7171 143.352 62.4697C143.703 62.2093 143.964 61.8773 144.133 61.4736C144.302 61.057 144.387 60.6208 144.387 60.165V58.6611C144.387 58.1794 144.296 57.7367 144.113 57.333C143.944 56.9163 143.677 56.5843 143.312 56.3369C142.961 56.0765 142.505 55.9463 141.945 55.9463C141.424 55.9463 140.982 56.0765 140.617 56.3369C140.253 56.5843 139.979 56.9163 139.797 57.333C139.628 57.7367 139.543 58.1794 139.543 58.6611ZM149.406 76.1611V74.6572C149.406 73.5895 149.641 72.613 150.109 71.7275C150.591 70.8421 151.288 70.1325 152.199 69.5986C153.124 69.0648 154.257 68.7979 155.598 68.7979C156.952 68.7979 158.085 69.0648 158.996 69.5986C159.908 70.1325 160.598 70.8421 161.066 71.7275C161.535 72.613 161.77 73.5895 161.77 74.6572V76.1611C161.77 77.2288 161.535 78.2054 161.066 79.0908C160.611 79.9762 159.927 80.6859 159.016 81.2197C158.104 81.7536 156.978 82.0205 155.637 82.0205C154.283 82.0205 153.143 81.7536 152.219 81.2197C151.294 80.6859 150.591 79.9762 150.109 79.0908C149.641 78.2054 149.406 77.2288 149.406 76.1611ZM153.156 74.6572V76.1611C153.156 76.6299 153.26 77.0726 153.469 77.4893C153.677 77.9059 153.964 78.238 154.328 78.4854C154.706 78.7327 155.142 78.8564 155.637 78.8564C156.262 78.8564 156.75 78.7327 157.102 78.4854C157.453 78.238 157.694 77.9059 157.824 77.4893C157.967 77.0726 158.039 76.6299 158.039 76.1611V74.6572C158.039 74.1885 157.948 73.7523 157.766 73.3486C157.583 72.932 157.31 72.5999 156.945 72.3525C156.594 72.0921 156.145 71.9619 155.598 71.9619C155.051 71.9619 154.595 72.0921 154.23 72.3525C153.879 72.5999 153.612 72.932 153.43 73.3486C153.247 73.7523 153.156 74.1885 153.156 74.6572ZM156.984 57.2549L143.098 79.4814L140.363 78.0361L154.25 55.8096L156.984 57.2549Z" fill="#09721A"/>
<g filter="url(#filter0_d_13_1788)">
<ellipse cx="611.949" cy="401.161" rx="354.882" ry="355" fill="white"/>
</g>
<g clip-path="url(#clip0_13_1788)">
<path d="M558.725 214.038C562.233 224.89 573.179 231.391 584.432 229.548C593.744 228.027 603.202 227.251 612.725 227.251C700.176 227.251 772.818 291.895 785.413 375.914C787.094 387.139 796.714 395.452 808.048 395.452H910.098C923.695 395.452 934.237 383.661 932.879 370.124C928.901 330.387 917.519 291.378 899.395 255.797C876.453 210.755 842.727 171.244 801.839 141.534C760.951 111.824 712.965 91.9306 663.055 84.022C623.752 77.7953 583.284 79.0083 544.384 87.4345C531.094 90.3133 523.14 103.963 527.327 116.918L540.261 156.914L558.725 214.038Z" fill="#A5FF00"/>
<path d="M735.842 699.28C775.065 683.026 810.198 659.542 840.221 629.509C870.245 599.459 893.72 564.331 909.969 525.095C922.143 495.693 929.823 465.061 932.911 433.701C934.237 420.164 923.695 408.406 910.098 408.406H808.064C796.682 408.406 787.094 416.768 785.397 428.008C774.047 503.456 714.259 563.28 638.836 574.65C627.583 576.348 619.241 585.955 619.241 597.324L619.257 667.063V699.409C619.257 713.011 631.027 723.556 644.543 722.213C675.893 719.124 706.482 711.442 735.842 699.28Z" fill="#09721A"/>
<path d="M428.93 468.522L331.891 500.092C318.957 504.297 312.603 518.739 318.052 531.209C340.897 583.513 376.967 628.425 423.675 662.357C470.352 696.272 524.207 716.682 580.955 722.229C594.488 723.556 606.258 713.043 606.258 699.442V597.341C606.258 586.003 597.964 576.364 586.743 574.698C530.431 566.321 481.863 531.031 456.496 480.086C451.436 469.929 439.714 465.012 428.93 468.522Z" fill="#17AE4B"/>
<path d="M450.951 292.202L368.463 232.168C357.469 224.162 342.012 227.494 335.157 239.235C314.996 273.716 301.254 311.95 294.981 351.38C288.707 390.826 289.92 431.437 298.392 470.462C301.27 483.757 314.931 491.714 327.866 487.525L424.921 456.052C435.769 452.543 442.252 441.593 440.409 430.337C438.873 420.989 438.114 411.495 438.114 401.937C438.114 373.521 444.855 346.091 457.757 321.346C463.012 311.287 460.134 298.898 450.951 292.202Z" fill="#068B34"/>
<path d="M483.642 107.101C441.072 125.668 403.401 153.033 372.553 187.74C363.548 197.881 365.164 213.569 376.126 221.558L458.695 281.722C467.894 288.434 480.554 287.27 488.573 279.183C501.992 265.646 517.594 254.309 534.554 245.769C544.723 240.642 549.735 228.982 546.227 218.146L514.668 120.994C510.48 108.071 496.075 101.683 483.642 107.101Z" fill="#7BB909"/>
</g>
<path d="M231 101.161H357.263L410 130.161" stroke="#CDCDCD" stroke-width="2" stroke-dasharray="2 2"/>
<path d="M967 103.161H858.371L813 128.161" stroke="#CDCDCD" stroke-width="2" stroke-dasharray="2 2"/>
<path d="M999 665.161H901.507L853 639.161" stroke="#CDCDCD" stroke-width="2" stroke-dasharray="2 2"/>
<path d="M213 667.161H312.98L371 643.161" stroke="#CDCDCD" stroke-width="2" stroke-dasharray="2 2"/>
<path d="M178 348.598H210.181L283.744 348.598" stroke="#CDCDCD" stroke-width="2" stroke-dasharray="2 2"/>
<defs>
<filter id="filter0_d_13_1788" x="207.067" y="0.160645" width="809.764" height="810" filterUnits="userSpaceOnUse" color-interpolation-filters="sRGB">
<feFlood flood-opacity="0" result="BackgroundImageFix"/>
<feColorMatrix in="SourceAlpha" type="matrix" values="0 0 0 0 0 0 0 0 0 0 0 0 0 0 0 0 0 0 127 0" result="hardAlpha"/>
<feOffset dy="4"/>
<feGaussianBlur stdDeviation="25"/>
<feComposite in2="hardAlpha" operator="out"/>
<feColorMatrix type="matrix" values="0 0 0 0 0 0 0 0 0 0 0 0 0 0 0 0 0 0 0.08 0"/>
<feBlend mode="normal" in2="BackgroundImageFix" result="effect1_dropShadow_13_1788"/>
<feBlend mode="normal" in="SourceGraphic" in2="effect1_dropShadow_13_1788" result="shape"/>
</filter>
<clipPath id="clip0_13_1788">
<rect width="642.005" height="642.218" fill="white" transform="translate(291.019 80.1242)"/>
</clipPath>
</defs>
</svg>
