<svg width="308" height="221" viewBox="0 0 308 221" fill="none" xmlns="http://www.w3.org/2000/svg">
<path d="M60.7528 94.4407C58.2118 94.4407 55.7863 94.588 53.3608 94.6985C46.8158 95.1037 40.5788 96.3192 34.3418 97.682L39.7318 103.796C44.0053 102.986 48.1248 102.176 52.2443 101.881C50.2423 109.358 46.0073 115.878 39.7318 120.371V128.917C50.2423 123.208 57.7883 113.152 60.0598 101.586C60.5988 99.3395 60.7528 96.9085 60.7528 94.4407Z" fill="white"/>
<path d="M90.1669 97.8292C83.7759 96.2086 77.6544 95.2509 71.1479 94.8457C68.7224 94.6984 66.1814 94.5879 63.7559 94.5879C63.7559 97.0189 63.9099 99.3394 64.3334 101.66C66.6049 113.226 73.9969 123.134 84.6614 128.99V120.445C78.2704 115.951 73.9969 109.432 72.1489 102.102C76.4224 102.36 80.5419 103.06 84.6614 104.017L90.1669 97.8292Z" fill="white"/>
<path d="M58.751 129.101L65.5655 121.771V113.741H58.751V129.101Z" fill="white"/>
<path d="M98.252 95.5457V128.033H106.645V115.399H119.696V108.327H106.645V102.36H124.547V95.5825C124.547 95.5457 98.252 95.5457 98.252 95.5457Z" fill="white"/>
<path d="M152.807 103.133C153.654 103.686 153.962 104.643 153.962 105.969V127.996H162.47V103.538C162.47 100.555 161.469 98.3818 159.352 97.019C157.773 96.0613 155.925 95.5088 153.538 95.5088H129.976V127.996H138.485V102.323H149.38C150.959 102.323 152.075 102.618 152.807 103.133Z" fill="white"/>
<path d="M192.269 128.033H200.778V95.5457H176.638C170.94 95.5457 168.245 97.8662 168.245 102.765V128.033H176.754V119.892H192.385L192.269 128.033ZM176.677 112.378V105.859C176.677 103.538 177.832 102.323 179.949 102.323H192.154V112.378H176.677Z" fill="white"/>
<path d="M236.467 95.5457H207.9L205.628 102.323H216.716V127.996H225.225V102.323H233.733L236.467 95.5457Z" fill="white"/>
<path d="M240.433 95.5457H248.941V128.033H240.433V95.5457Z" fill="white"/>
<path fill-rule="evenodd" clip-rule="evenodd" d="M255.909 97.9767C255.062 99.0817 254.485 100.702 254.485 102.728V120.003C254.485 122.729 255.486 124.754 257.334 126.117C259.028 127.333 261.03 128.033 263.455 128.033H281.781V121.66H266.15C264.726 121.66 263.032 121.108 263.032 118.125V105.343C263.032 104.533 263.301 103.833 263.879 103.317C264.456 102.765 265.149 102.507 266.15 102.507H278.778L281.319 95.7298H263.571C259.759 95.5457 257.218 96.356 255.909 97.9767Z" fill="white"/>
</svg>
