<svg width="2461" height="360" viewBox="0 0 2461 360" fill="none" xmlns="http://www.w3.org/2000/svg">
<path d="M0.651521 353.752C-0.328062 355.601 0.376995 357.894 2.22631 358.874C4.07562 359.853 6.3689 359.148 7.34848 357.299L0.651521 353.752ZM2457.78 101.792C2457.64 99.7044 2455.83 98.1266 2453.74 98.2682L2419.72 100.576C2417.63 100.717 2416.05 102.525 2416.19 104.613C2416.34 106.701 2418.14 108.279 2420.23 108.137L2450.48 106.086L2452.53 136.33C2452.67 138.418 2454.48 139.996 2456.56 139.854C2458.65 139.713 2460.23 137.905 2460.09 135.817L2457.78 101.792ZM2042.48 226.159L2039.71 228.745L2042.48 226.159ZM1569.23 102.719L1572.45 104.712L1569.23 102.719ZM1897.01 70.313L1894.24 72.8985L1897.01 70.313ZM1512.95 193.719L1509.73 191.726L1512.95 193.719ZM976.892 314.127L974.746 311.004L976.892 314.127ZM373.48 109.996L375.323 106.685L373.48 109.996ZM7.34848 357.299L92.8717 195.843L86.1747 192.296L0.651521 353.752L7.34848 357.299ZM371.637 113.307L756.826 327.736L760.512 321.115L375.323 106.685L371.637 113.307ZM979.039 317.249L1027.94 283.631L1023.64 277.386L974.746 311.004L979.039 317.249ZM1516.18 195.712L1572.45 104.712L1566.01 100.726L1509.73 191.726L1516.18 195.712ZM1894.24 72.8985L2039.71 228.745L2045.25 223.574L1899.79 67.7275L1894.24 72.8985ZM2352.98 223.533L2456.85 104.541L2451.15 99.5568L2347.27 218.55L2352.98 223.533ZM2039.71 228.745C2125.05 320.176 2270.73 317.752 2352.98 223.533L2347.27 218.55C2267.97 309.385 2127.52 311.721 2045.25 223.574L2039.71 228.745ZM1572.45 104.712C1643.01 -9.37234 1802.72 -25.1618 1894.24 72.8985L1899.79 67.7275C1804.85 -33.9853 1639.19 -17.6077 1566.01 100.726L1572.45 104.712ZM1238.08 271.303C1336.15 322.729 1457.91 289.922 1516.18 195.712L1509.73 191.726C1453.58 282.527 1336.18 314.185 1241.6 264.592L1238.08 271.303ZM1027.94 283.631C1090.12 240.885 1171.24 236.255 1238.08 271.303L1241.6 264.592C1172.29 228.246 1088.15 233.038 1023.64 277.386L1027.94 283.631ZM756.826 327.736C826.876 366.732 912.973 362.669 979.039 317.249L974.746 311.004C911.052 354.793 828.047 358.71 760.512 321.115L756.826 327.736ZM92.8717 195.843C146.248 95.0764 272.004 57.8428 371.637 113.307L375.323 106.685C271.979 49.1553 141.539 87.7758 86.1747 192.296L92.8717 195.843Z" fill="url(#paint0_linear_1_392)"/>
<defs>
<linearGradient id="paint0_linear_1_392" x1="2045.37" y1="82.6949" x2="2035" y2="268.236" gradientUnits="userSpaceOnUse">
<stop stop-color="#A5FF00"/>
<stop offset="1" stop-color="#A5FF00"/>
</linearGradient>
</defs>
</svg>
