<svg width="277" height="76" viewBox="0 0 277 76" fill="none" xmlns="http://www.w3.org/2000/svg">
<path fill-rule="evenodd" clip-rule="evenodd" d="M55.4914 30.8765H48.2565L46.6158 40.1021H34.0849L40.9472 0.744275H59.8914C67.1014 0.744275 70.7061 4.14177 70.7061 10.9373C70.7061 14.0123 70.2584 16.8391 69.3635 19.4184C68.4689 21.9977 67.4988 24.031 66.4546 25.5196C65.4104 27.007 63.9344 28.2721 62.0249 29.3141C60.1057 30.3557 57.9274 30.8765 55.4914 30.8765ZM56.2364 18.6741L57.1321 13.6157C57.1321 13.5657 57.1573 13.4173 57.2065 13.169C57.2065 12.1271 56.1368 11.6063 53.9992 11.6063H51.6123L50.0468 20.8319H52.3584C53.5022 20.8319 54.3968 20.6932 55.0434 20.4154C55.6902 20.1473 56.0879 19.5676 56.2364 18.6741ZM32.2212 36.5311L31.6236 39.8787L0 36.5311H32.2212ZM34.7566 22.1709L34.1604 25.5196L2.53673 22.1709H34.7566ZM36.0251 15.0292L35.4275 18.3767L3.80383 15.0292H36.0251ZM37.2922 7.88602L36.6957 11.2347L5.07205 7.88602H37.2922ZM38.486 0.744275L37.9639 4.09184L6.34028 0.744275H38.486ZM33.4884 29.3141L32.8919 32.6616L1.26822 29.3141H33.4884ZM86.5929 22.1709L85.9964 25.5196L54.3728 22.1709H86.5929ZM87.8611 15.0292L87.2635 18.3767L55.6399 15.0292H87.8611ZM89.1282 7.88602L88.5317 11.2347L56.9081 7.88602H89.1282ZM90.3224 0.744275L89.8002 4.09184L58.1763 0.744275H90.3224ZM54.1488 29.3141H85.6983V30.8015C85.6983 31.6448 85.7221 32.2649 85.7724 32.6616L54.1488 29.3141ZM88.6061 39.8787L56.9825 36.5311H86.4433C86.9906 37.9192 87.7115 39.0351 88.6061 39.8787ZM100.167 29.6856H103.896C105.239 29.6856 106.169 29.5222 106.685 29.1952C107.213 28.8769 107.576 28.0989 107.774 26.8589L112.474 0.744275H125.003L121.125 22.9152C119.932 29.86 118.002 34.6065 115.337 37.1554C112.683 39.7152 108.148 40.9945 101.733 40.9945C96.6123 40.9945 93.0313 40.236 90.993 38.7182C88.9546 37.2098 87.9355 34.5717 87.9355 30.8015C87.9355 28.719 88.2085 26.0895 88.7557 22.9152L92.7081 0.744275H105.239L100.167 29.6856ZM138.339 39.8787L107.178 36.5311H139.398L138.339 39.8787ZM112.92 7.88602H145.052C144.764 8.68051 144.44 9.79636 144.082 11.2347L112.92 7.88602ZM143.188 17.7817V18.3767L111.564 15.0292H143.336C143.237 16.2189 143.188 17.1365 143.188 17.7817ZM141.769 29.3141L140.726 32.5874L109.624 29.3141H141.769ZM118.067 0.744275H150.213C148.86 1.73571 147.841 2.77764 147.155 3.86839L118.067 0.744275ZM114.472 22.1709H143.874C144.32 23.4611 145.041 24.577 146.036 25.5196L114.472 22.1709ZM177.212 1.56247L173.632 12.4248C170.242 11.6314 167.352 11.2347 164.965 11.2347C162.59 11.2347 160.824 11.3089 159.671 11.4581L159.297 13.6157L163.026 14.0614C171.031 15.1031 175.035 18.4018 175.035 23.9571C175.035 24.6021 174.891 25.8019 174.603 27.5585C174.293 29.3238 173.796 31.0249 173.11 32.6616C172.404 34.2983 171.519 35.6234 170.455 36.6346C169.391 37.6567 168.346 38.4752 167.323 39.0898C166.308 39.7152 165 40.1509 163.399 40.3995C160.914 40.7962 157.597 40.9945 153.449 40.9945C149.303 40.9945 145.117 40.4246 140.89 39.2836L144.544 28.2721C148.413 29.3631 151.804 29.9091 154.718 29.9091C157.631 29.9091 159.68 29.8349 160.864 29.6856L161.236 27.3047L156.553 26.7836C152.525 26.3381 149.667 25.3954 147.975 23.9571C146.275 22.5185 145.425 20.46 145.425 17.7817C145.425 16.79 145.549 15.55 145.797 14.0614C146.792 8.75471 148.582 5.08439 151.167 3.04991C153.763 1.01654 157.707 0 162.997 0C168.287 0 173.026 0.520825 177.212 1.56247ZM227.169 40.1021H214.639L216.951 26.4862H208.598L206.211 40.1021H193.681L200.543 0.744275H213.148L210.686 14.3588H219.114L221.501 0.744275H234.105L227.169 40.1021ZM191.816 36.5311L191.219 39.8787L159.595 36.5311H191.816ZM194.352 22.1709L193.755 25.5196L162.132 22.1709H194.352ZM195.62 15.0292L195.024 18.3767L163.399 15.0292H195.62ZM196.887 7.88602L196.291 11.2347L164.667 7.88602H196.887ZM198.081 0.744275L197.559 4.09184L165.936 0.744275H198.081ZM193.084 29.3141L192.487 32.6616L160.864 29.3141H193.084Z" fill="#030303"/>
<path fill-rule="evenodd" clip-rule="evenodd" d="M269.831 16.6254L273.259 17.4112V18.8353H268.754L269.831 16.6254ZM264.536 10.5624L260.091 11.445L261.972 15.9564L264.536 10.5624ZM272.27 10.6506C272.293 10.7379 272.311 10.8238 272.325 10.9111C272.494 12.0967 271.765 13.2279 270.596 13.5406L269.618 13.802L266.233 20.3337L274.167 28.2744C274.455 28.5589 274.649 28.9238 274.725 29.3205L277 40.9945H275.335L271.111 31.0673C269.163 29.812 262.326 25.3977 260.987 24.5312C259.536 23.5897 259.03 21.7089 259.816 20.1713L260.245 19.3322L261.916 20.214L262.189 19.6385L260.993 17.8668L260.637 17.3415L256.582 11.3427C256.353 11.0124 256.283 10.5984 256.392 10.2115C256.5 9.82454 256.776 9.50652 257.144 9.34305L266.478 5.42445C266.786 5.2872 267.121 5.21746 267.458 5.21969H268.641C269.636 5.2208 270.524 5.84066 270.865 6.77351L272.207 10.4533C272.232 10.5178 272.251 10.5842 272.27 10.6506ZM270.185 3.03484C270.186 1.35883 271.548 0 273.228 0C274.908 0 276.27 1.35883 276.27 3.03484C276.27 4.71169 274.907 6.06969 273.227 6.06969C271.547 6.06969 270.185 4.71058 270.185 3.03484ZM269.205 2.93777C268.545 3.43683 267.739 3.70715 266.911 3.70603C265.838 3.70715 264.816 3.25606 264.096 2.46381C264.816 1.67155 265.838 1.21935 266.911 1.22047C267.773 1.22047 268.568 1.50696 269.205 1.98873V2.93777ZM254.83 28.0498L258.384 23.2845L261.844 27.5792L257.209 31.7115C256.652 32.2301 255.848 32.3935 255.132 32.1319L243.815 28.5533V26.5908L254.83 28.0498Z" fill="#030303"/>
<mask id="mask0_1_81" style="mask-type:alpha" maskUnits="userSpaceOnUse" x="96" y="50" width="85" height="26">
<path fill-rule="evenodd" clip-rule="evenodd" d="M96.6626 50.6719H180.331V75.9998H96.6626V50.6719Z" fill="white"/>
</mask>
<g mask="url(#mask0_1_81)">
<path fill-rule="evenodd" clip-rule="evenodd" d="M132.137 60.5631L131.04 66.6024H124.457L122.832 76.0076H115.111L119.581 50.6719H135.428L133.275 57.1578H126.123L125.554 60.5631H132.137ZM114.216 74.0613L113.892 75.8854L96.6626 74.0613H114.216ZM115.598 66.2383L115.273 68.0625L98.0432 66.2383H115.598ZM116.289 62.3471L115.964 64.1712L98.7348 62.3471H116.289ZM116.98 58.4558L116.654 60.2788L99.425 58.4558H116.98ZM117.63 54.5631L117.346 56.3876L100.117 54.5631H117.63ZM114.908 70.1296L114.582 71.9537L97.3528 70.1296H114.908ZM118.321 50.6719L117.996 52.496L100.807 50.6719H118.321ZM149.285 76.0076H142.174L145.913 54.5631H153.065L149.285 76.0076ZM141.158 74.0613L140.833 75.8854L123.603 74.0613H141.158ZM142.54 66.2383L142.214 68.0625L124.985 66.2383H142.54ZM143.23 62.3471L142.906 64.1712L125.677 62.3471H143.23ZM143.922 58.4558L143.596 60.2788L126.367 58.4558H143.922ZM144.571 54.5631L144.287 56.3876L127.057 54.5631H144.571ZM141.849 70.1296L141.524 71.9537L124.294 70.1296H141.849ZM180.331 54.5631L179.234 60.6437H174.845L172.163 76.0076H165.011L167.693 60.6437H163.183L164.279 54.5631H180.331ZM164.118 74.0613L163.792 75.8854L146.563 74.0613H164.118ZM165.498 66.2383L165.174 68.0625L147.944 66.2383H165.498ZM166.19 62.3471L165.865 64.1712L148.635 62.3471H166.19ZM162.289 58.4558L161.963 60.2788L144.734 58.4558H162.289ZM162.939 54.5631L162.654 56.3876L145.425 54.5631H162.939ZM164.808 70.1296L164.482 71.9537L147.253 70.1296H164.808Z" fill="#030303"/>
</g>
</svg>
