<svg width="900" height="1034" viewBox="0 0 900 1034" fill="none" xmlns="http://www.w3.org/2000/svg">
<g clip-path="url(#clip0_1_326)">
<path d="M384.223 1021.39C370.054 1024.92 293.152 1039.46 264.347 948.05L8.0175 292.904C8.0175 292.904 -10.8389 251.551 22.3226 213.82C26.4203 209.156 31.3401 205.303 36.7697 202.316C36.8522 202.272 36.9278 202.228 37.0103 202.184C44.1035 198.296 51.9694 196.023 60.0413 195.545L326.033 179.912C348.677 178.583 370.929 186.536 387.457 202.106C403.944 217.642 413.043 242.813 432.982 286.995L693.113 870.404C693.113 870.404 714.147 921.191 671.823 953.806C662.206 961.214 650.938 966.186 639.056 968.638L390.556 1019.94C388.435 1020.38 386.329 1020.87 384.23 1021.39L384.223 1021.39Z" stroke="black" stroke-width="1.96179" stroke-miterlimit="10"/>
<path d="M698.326 899.221C687.275 945.914 646.948 946.283 646.948 946.283L404.219 992.948C319.07 1015.36 291.977 936.449 291.977 936.449L31.7373 266.467C31.7373 266.467 1.98786 216.865 44.6926 198.715" stroke="black" stroke-width="1.96179" stroke-miterlimit="10"/>
<path d="M123.399 206.35L62.129 209.695C56.0952 210.022 50.2768 212.244 45.7369 216.235C38.525 222.583 32.5624 234.766 43.4536 257.203C43.9537 258.238 44.4059 259.301 44.8232 260.366L310.978 937.963C315.709 950.013 323.712 960.514 334.13 968.174C345.947 976.867 359.164 984.952 381.809 978.763C387.041 977.331 392.358 976.212 397.692 975.21L646.106 929.322C656.017 927.464 665.13 922.429 671.667 914.743C679.706 905.287 685.593 890.125 676.999 867.301L391.694 227.596C387.452 218.082 380.85 209.759 372.349 203.761C364.543 198.255 353.967 193.719 340.652 194.358L294.756 195.538C294.756 195.538 278.006 194.567 280.29 202.19C280.29 202.19 287.769 222.249 264.786 222.833L159.747 230.389C159.747 230.389 147.96 232.783 140.677 220.4L132.774 210.539C130.507 207.706 127.011 206.147 123.399 206.343L123.399 206.35Z" fill="#F2FFDD" stroke="black" stroke-width="1.96179" stroke-miterlimit="10"/>
<path d="M176.688 211.462C176.585 207.416 173.228 204.219 169.189 204.321C165.151 204.424 161.96 207.787 162.063 211.834C162.166 215.88 165.523 219.078 169.562 218.975C173.6 218.872 176.791 215.509 176.688 211.462Z" stroke="black" stroke-width="1.96179" stroke-miterlimit="10"/>
<path d="M252.394 199.061L191.194 202.921C187.162 203.176 184.1 206.657 184.354 210.697C184.608 214.736 188.083 217.805 192.115 217.551L253.315 213.69C257.347 213.436 260.409 209.955 260.155 205.915C259.901 201.875 256.426 198.806 252.394 199.061Z" stroke="black" stroke-width="1.96179" stroke-miterlimit="10"/>
<path d="M32.8106 269.225L31.2785 269.264C28.2768 269.34 25.5457 271.016 24.1073 273.65L10.3571 298.87" stroke="black" stroke-width="1.96179" stroke-miterlimit="10"/>
<path d="M36.182 276.827L34.6498 276.866C31.6481 276.942 28.917 278.618 27.4786 281.252L13.7285 306.472" stroke="black" stroke-width="1.96179" stroke-miterlimit="10"/>
<path d="M283.465 913.043L281.933 913.082C278.932 913.158 276.201 914.833 274.762 917.467L260.661 937.942" stroke="black" stroke-width="1.96179" stroke-miterlimit="10"/>
<path d="M286.747 922.623L285.215 922.662C282.214 922.738 279.483 924.414 278.044 927.048L263.943 947.522" stroke="black" stroke-width="1.96179" stroke-miterlimit="10"/>
<path d="M400.272 993.928C400.37 997.807 399.213 1001.61 396.972 1004.78L385.4 1021.1" stroke="black" stroke-width="1.96179" stroke-miterlimit="10"/>
<path d="M409.969 991.587C410.067 995.466 408.91 999.273 406.669 1002.44L395.097 1018.76" stroke="black" stroke-width="1.96179" stroke-miterlimit="10"/>
<path d="M444.809 999.604C446.732 999.555 448.251 997.954 448.202 996.027C448.153 994.1 446.555 992.577 444.631 992.626C442.708 992.675 441.189 994.277 441.238 996.204C441.287 998.13 442.886 999.653 444.809 999.604Z" stroke="black" stroke-width="1.96179" stroke-miterlimit="10"/>
<path d="M444.809 999.604C446.732 999.555 448.251 997.954 448.202 996.027C448.153 994.1 446.555 992.577 444.631 992.626C442.708 992.675 441.189 994.277 441.238 996.204C441.287 998.13 442.886 999.653 444.809 999.604Z" stroke="black" stroke-width="1.96179" stroke-miterlimit="10"/>
<path d="M431.647 1002.73C433.57 1002.68 435.09 1001.08 435.041 999.154C434.992 997.227 433.393 995.704 431.47 995.753C429.547 995.802 428.027 997.404 428.076 999.331C428.125 1001.26 429.724 1002.78 431.647 1002.73Z" stroke="black" stroke-width="1.96179" stroke-miterlimit="10"/>
<path d="M431.647 1002.73C433.57 1002.68 435.09 1001.08 435.041 999.154C434.992 997.227 433.393 995.704 431.47 995.753C429.547 995.802 428.027 997.404 428.076 999.331C428.125 1001.26 429.724 1002.78 431.647 1002.73Z" stroke="black" stroke-width="1.96179" stroke-miterlimit="10"/>
<path d="M457.988 997.174C459.911 997.125 461.43 995.524 461.381 993.597C461.333 991.67 459.734 990.147 457.811 990.196C455.887 990.245 454.368 991.847 454.417 993.774C454.466 995.701 456.065 997.223 457.988 997.174Z" stroke="black" stroke-width="1.96179" stroke-miterlimit="10"/>
<path d="M457.988 997.174C459.911 997.125 461.43 995.524 461.381 993.597C461.333 991.67 459.734 990.147 457.811 990.196C455.887 990.245 454.368 991.847 454.417 993.774C454.466 995.701 456.065 997.223 457.988 997.174Z" stroke="black" stroke-width="1.96179" stroke-miterlimit="10"/>
<path d="M596.71 971.306C598.633 971.257 600.153 969.656 600.104 967.729C600.055 965.802 598.456 964.279 596.533 964.328C594.61 964.377 593.09 965.979 593.139 967.906C593.188 969.833 594.787 971.355 596.71 971.306Z" stroke="black" stroke-width="1.96179" stroke-miterlimit="10"/>
<path d="M583.549 974.433C585.472 974.385 586.991 972.783 586.942 970.856C586.893 968.929 585.295 967.407 583.371 967.455C581.448 967.504 579.929 969.106 579.978 971.033C580.027 972.96 581.626 974.482 583.549 974.433Z" stroke="black" stroke-width="1.96179" stroke-miterlimit="10"/>
<path d="M609.89 968.876C611.813 968.827 613.332 967.226 613.283 965.299C613.234 963.372 611.635 961.849 609.712 961.898C607.789 961.947 606.27 963.549 606.319 965.476C606.368 967.403 607.966 968.925 609.89 968.876Z" stroke="black" stroke-width="1.96179" stroke-miterlimit="10"/>
<path d="M609.89 968.876C611.813 968.827 613.332 967.226 613.283 965.299C613.234 963.372 611.635 961.849 609.712 961.898C607.789 961.947 606.27 963.549 606.319 965.476C606.368 967.403 607.966 968.925 609.89 968.876Z" stroke="black" stroke-width="1.96179" stroke-miterlimit="10"/>
<path d="M623.069 966.447C624.992 966.398 626.511 964.796 626.462 962.869C626.413 960.942 624.815 959.42 622.891 959.469C620.968 959.518 619.449 961.119 619.498 963.046C619.547 964.973 621.146 966.495 623.069 966.447Z" stroke="black" stroke-width="1.96179" stroke-miterlimit="10"/>
<path d="M535.223 977.393L499.49 983.36C497.782 983.645 496.628 985.264 496.913 986.975C497.198 988.686 498.813 989.842 500.521 989.557L536.255 983.589C537.963 983.304 539.116 981.686 538.831 979.975C538.547 978.263 536.931 977.107 535.223 977.393Z" stroke="black" stroke-width="1.96179" stroke-miterlimit="10"/>
<path d="M64.7626 393.291L64.756 393.293C62.143 394.271 60.8162 397.186 61.7925 399.805L79.7543 447.97C80.7306 450.588 83.6405 451.918 86.2535 450.94L86.2601 450.938C88.8731 449.96 90.1999 447.044 89.2236 444.426L71.2619 396.261C70.2855 393.642 67.3757 392.313 64.7626 393.291Z" stroke="black" stroke-width="1.96179" stroke-miterlimit="10"/>
<path d="M50.6464 358.735L50.6398 358.737C48.0268 359.715 46.7 362.631 47.6763 365.249L51.2901 374.94C52.2665 377.558 55.1763 378.888 57.7894 377.91L57.7959 377.907C60.409 376.929 61.7358 374.014 60.7594 371.396L57.1456 361.705C56.1693 359.087 53.2594 357.757 50.6464 358.735Z" stroke="black" stroke-width="1.96179" stroke-miterlimit="10"/>
<path d="M51.6905 361.531L51.684 361.533C50.5018 361.976 49.9015 363.294 50.3433 364.479L50.3457 364.486C50.7874 365.67 52.1039 366.272 53.2861 365.829L53.2926 365.827C54.4748 365.384 55.0751 364.065 54.6333 362.881L54.6309 362.874C54.1892 361.69 52.8727 361.088 51.6905 361.531Z" stroke="black" stroke-width="1.96179" stroke-miterlimit="10"/>
<path d="M92.2782 461.722L92.2717 461.724C89.6586 462.702 88.3318 465.618 89.3082 468.236L107.27 516.401C108.246 519.02 111.156 520.349 113.769 519.371L113.776 519.369C116.389 518.391 117.716 515.476 116.739 512.857L98.7775 464.692C97.8011 462.073 94.8913 460.744 92.2782 461.722Z" stroke="black" stroke-width="1.96179" stroke-miterlimit="10"/>
</g>
<g clip-path="url(#clip1_1_326)">
<path d="M515.777 851.234C529.946 854.764 606.848 869.3 635.653 777.891L891.982 122.745C891.982 122.745 910.839 81.3923 877.677 43.6614C873.58 38.9978 868.66 35.1441 863.23 32.1573C863.148 32.1133 863.072 32.0695 862.99 32.0255C855.897 28.1376 848.031 25.864 839.959 25.3866L573.967 9.75378C551.323 8.42438 529.071 16.3776 512.543 31.9475C496.056 47.4836 486.957 72.6546 467.018 116.836L206.887 700.245C206.887 700.245 185.853 751.032 228.177 783.647C237.794 791.055 249.062 796.027 260.944 798.479L509.444 849.781C511.565 850.219 513.671 850.712 515.77 851.233L515.777 851.234Z" stroke="black" stroke-width="1.96179" stroke-miterlimit="10"/>
<path d="M201.674 729.062C212.725 775.755 253.052 776.124 253.052 776.124L495.781 822.789C580.93 845.202 608.023 766.29 608.023 766.29L868.263 96.3076C868.263 96.3076 898.012 46.7059 855.308 28.5558" stroke="black" stroke-width="1.96179" stroke-miterlimit="10"/>
<path d="M776.601 36.1915L837.871 39.5357C843.905 39.8636 849.723 42.0852 854.263 46.0758C861.475 52.4245 867.438 64.6068 856.546 87.0441C856.046 88.0787 855.594 89.1426 855.177 90.2073L589.022 767.804C584.291 779.854 576.288 790.355 565.87 798.015C554.053 806.708 540.836 814.793 518.191 808.604C512.959 807.172 507.642 806.053 502.308 805.051L253.894 759.163C243.983 757.306 234.87 752.27 228.333 744.584C220.294 735.128 214.407 719.966 223.001 697.142L508.306 57.4374C512.548 47.9234 519.15 39.6004 527.651 33.602C535.457 28.0957 546.033 23.5604 559.348 24.199L605.244 25.379C605.244 25.379 621.994 24.4081 619.71 32.0308C619.71 32.0308 612.231 52.0899 635.214 52.6738L740.253 60.2303C740.253 60.2303 752.04 62.6245 759.323 50.2411L767.226 40.3802C769.493 37.547 772.989 35.988 776.601 36.1845L776.601 36.1915Z" fill="#F2FFDD" stroke="black" stroke-width="1.96179" stroke-miterlimit="10"/>
<path d="M723.312 41.3037C723.415 37.2571 726.772 34.06 730.811 34.1626C734.849 34.2652 738.04 37.6287 737.937 41.6752C737.834 45.7218 734.477 48.9189 730.438 48.8163C726.4 48.7137 723.209 45.3502 723.312 41.3037Z" stroke="black" stroke-width="1.96179" stroke-miterlimit="10"/>
<path d="M647.606 28.9017L708.806 32.7624C712.838 33.0167 715.9 36.4978 715.646 40.5376C715.392 44.5774 711.917 47.6462 707.885 47.3918L646.685 43.5312C642.653 43.2769 639.591 39.7958 639.845 35.7559C640.099 31.7161 643.574 28.6474 647.606 28.9017Z" stroke="black" stroke-width="1.96179" stroke-miterlimit="10"/>
<path d="M867.189 99.066L868.722 99.105C871.723 99.1812 874.454 100.857 875.893 103.491L889.643 128.712" stroke="black" stroke-width="1.96179" stroke-miterlimit="10"/>
<path d="M863.818 106.668L865.35 106.707C868.352 106.783 871.083 108.459 872.521 111.093L886.272 136.314" stroke="black" stroke-width="1.96179" stroke-miterlimit="10"/>
<path d="M616.535 742.884L618.067 742.923C621.068 742.999 623.799 744.674 625.238 747.309L639.339 767.783" stroke="black" stroke-width="1.96179" stroke-miterlimit="10"/>
<path d="M613.253 752.464L614.785 752.503C617.786 752.579 620.517 754.255 621.956 756.889L636.057 777.364" stroke="black" stroke-width="1.96179" stroke-miterlimit="10"/>
<path d="M499.728 823.769C499.63 827.648 500.787 831.455 503.027 834.62L514.599 850.945" stroke="black" stroke-width="1.96179" stroke-miterlimit="10"/>
<path d="M490.031 821.428C489.933 825.308 491.09 829.115 493.331 832.279L504.903 848.604" stroke="black" stroke-width="1.96179" stroke-miterlimit="10"/>
<path d="M455.192 829.445C453.268 829.396 451.749 827.795 451.798 825.868C451.847 823.941 453.446 822.418 455.369 822.467C457.292 822.516 458.811 824.118 458.762 826.045C458.713 827.972 457.115 829.494 455.192 829.445Z" stroke="black" stroke-width="1.96179" stroke-miterlimit="10"/>
<path d="M455.192 829.445C453.268 829.396 451.749 827.795 451.798 825.868C451.847 823.941 453.446 822.418 455.369 822.467C457.292 822.516 458.811 824.118 458.762 826.045C458.713 827.972 457.115 829.494 455.192 829.445Z" stroke="black" stroke-width="1.96179" stroke-miterlimit="10"/>
<path d="M468.353 832.572C466.43 832.523 464.91 830.922 464.959 828.995C465.008 827.068 466.607 825.545 468.53 825.594C470.453 825.643 471.973 827.245 471.924 829.172C471.875 831.099 470.276 832.621 468.353 832.572Z" stroke="black" stroke-width="1.96179" stroke-miterlimit="10"/>
<path d="M468.353 832.572C466.43 832.523 464.91 830.922 464.959 828.995C465.008 827.068 466.607 825.545 468.53 825.594C470.453 825.643 471.973 827.245 471.924 829.172C471.875 831.099 470.276 832.621 468.353 832.572Z" stroke="black" stroke-width="1.96179" stroke-miterlimit="10"/>
<path d="M442.012 827.015C440.089 826.967 438.57 825.365 438.619 823.438C438.667 821.511 440.266 819.989 442.189 820.038C444.113 820.086 445.632 821.688 445.583 823.615C445.534 825.542 443.935 827.064 442.012 827.015Z" stroke="black" stroke-width="1.96179" stroke-miterlimit="10"/>
<path d="M442.012 827.015C440.089 826.967 438.57 825.365 438.619 823.438C438.667 821.511 440.266 819.989 442.189 820.038C444.113 820.086 445.632 821.688 445.583 823.615C445.534 825.542 443.935 827.064 442.012 827.015Z" stroke="black" stroke-width="1.96179" stroke-miterlimit="10"/>
<path d="M303.29 801.147C301.367 801.098 299.847 799.497 299.896 797.57C299.945 795.643 301.544 794.12 303.467 794.169C305.39 794.218 306.91 795.82 306.861 797.747C306.812 799.674 305.213 801.196 303.29 801.147Z" stroke="black" stroke-width="1.96179" stroke-miterlimit="10"/>
<path d="M316.451 804.275C314.528 804.226 313.009 802.624 313.058 800.697C313.107 798.77 314.705 797.248 316.629 797.297C318.552 797.346 320.071 798.947 320.022 800.874C319.973 802.801 318.374 804.324 316.451 804.275Z" stroke="black" stroke-width="1.96179" stroke-miterlimit="10"/>
<path d="M290.11 798.717C288.187 798.669 286.668 797.067 286.717 795.14C286.766 793.213 288.365 791.691 290.288 791.739C292.211 791.788 293.73 793.39 293.681 795.317C293.632 797.244 292.034 798.766 290.11 798.717Z" stroke="black" stroke-width="1.96179" stroke-miterlimit="10"/>
<path d="M290.11 798.717C288.187 798.669 286.668 797.067 286.717 795.14C286.766 793.213 288.365 791.691 290.288 791.739C292.211 791.788 293.73 793.39 293.681 795.317C293.632 797.244 292.034 798.766 290.11 798.717Z" stroke="black" stroke-width="1.96179" stroke-miterlimit="10"/>
<path d="M276.931 796.288C275.008 796.239 273.489 794.637 273.538 792.71C273.587 790.784 275.185 789.261 277.109 789.31C279.032 789.359 280.551 790.961 280.502 792.887C280.453 794.814 278.854 796.337 276.931 796.288Z" stroke="black" stroke-width="1.96179" stroke-miterlimit="10"/>
<path d="M364.777 807.234L400.51 813.201C402.218 813.486 403.372 815.105 403.087 816.816C402.802 818.527 401.187 819.683 399.479 819.398L363.745 813.43C362.037 813.145 360.884 811.527 361.169 809.816C361.453 808.105 363.069 806.949 364.777 807.234Z" stroke="black" stroke-width="1.96179" stroke-miterlimit="10"/>
<path d="M835.237 223.132L835.244 223.134C837.857 224.112 839.184 227.028 838.207 229.646L820.246 277.811C819.269 280.43 816.36 281.759 813.746 280.781L813.74 280.779C811.127 279.801 809.8 276.885 810.776 274.267L828.738 226.102C829.715 223.483 832.624 222.154 835.237 223.132Z" stroke="black" stroke-width="1.96179" stroke-miterlimit="10"/>
<path d="M849.354 188.576L849.36 188.579C851.973 189.557 853.3 192.472 852.324 195.09L848.71 204.781C847.733 207.399 844.824 208.729 842.211 207.751L842.204 207.748C839.591 206.77 838.264 203.855 839.241 201.237L842.854 191.546C843.831 188.928 846.741 187.598 849.354 188.576Z" stroke="black" stroke-width="1.96179" stroke-miterlimit="10"/>
<path d="M848.309 191.372L848.316 191.374C849.498 191.817 850.098 193.136 849.657 194.32L849.654 194.327C849.213 195.511 847.896 196.113 846.714 195.67L846.707 195.668C845.525 195.225 844.925 193.906 845.367 192.722L845.369 192.715C845.811 191.531 847.127 190.929 848.309 191.372Z" stroke="black" stroke-width="1.96179" stroke-miterlimit="10"/>
<path d="M807.722 291.563L807.728 291.566C810.341 292.544 811.668 295.459 810.692 298.077L792.73 346.243C791.754 348.861 788.844 350.191 786.231 349.213L786.224 349.21C783.611 348.232 782.284 345.317 783.261 342.699L801.223 294.533C802.199 291.915 805.109 290.585 807.722 291.563Z" stroke="black" stroke-width="1.96179" stroke-miterlimit="10"/>
</g>
<defs>
<clipPath id="clip0_1_326">
<rect width="680.74" height="846.511" fill="white" transform="translate(0 187.448) rotate(-1.45541)"/>
</clipPath>
<clipPath id="clip1_1_326">
<rect width="680.74" height="846.511" fill="white" transform="matrix(-0.999677 -0.0253989 -0.0253989 0.999677 900 17.29)"/>
</clipPath>
</defs>
</svg>
