<svg width="289" height="237" viewBox="0 0 289 237" fill="none" xmlns="http://www.w3.org/2000/svg">
<path d="M85.1105 131.087L78.4154 119.553C78.03 118.711 77.6929 118.237 77.6929 117.236C77.6929 115.814 78.3672 114.761 80.6792 113.181C81.1609 112.812 82.9912 112.022 84.4362 112.022C86.411 112.022 87.856 114.234 87.856 118.921C87.9042 126.505 85.1105 131.087 85.1105 131.087ZM85.1105 131.087L86.3629 116.288L86.9409 113.707C86.9409 113.707 89.3974 117.605 95.659 130.245C99.6569 122.345 102.162 112.865 102.162 112.865C102.354 112.233 102.788 112.075 103.51 112.233L107.797 113.707C108.327 113.918 108.616 114.129 108.327 115.182C104.763 126.558 99.1752 135.933 99.1752 135.933C98.1155 137.671 97.0077 139.145 93.347 139.145C90.4089 139.145 89.3974 138.039 88.3859 136.407L85.1105 131.087ZM58.667 135.037C58.667 135.037 54.1394 131.245 54.1394 124.188V103.911C54.1394 102.279 55.1027 100.857 59.1005 100.857C63.4837 100.857 63.9654 102.7 63.9654 104.122V112.549H71.7202C72.2982 112.549 72.4909 112.917 72.4909 113.497V118.5C72.4909 118.974 72.2982 119.343 71.8165 119.343H66.6627C65.314 119.343 63.9654 118.763 63.9654 118.763V122.134C63.9654 126.4 62.9539 130.719 58.667 135.037ZM58.667 135.037L62.6649 123.714L63.9654 122.292V124.293C63.9654 129.033 66.0847 132.72 71.5275 132.72C76.5369 132.72 80.0049 129.613 80.0049 124.82C80.0049 122.397 78.9452 120.449 78.9452 120.449L84.5807 123.556L85.0624 131.087C85.0624 131.087 81.3054 139.145 70.6605 139.145C62.4722 139.145 58.667 135.037 58.667 135.037ZM33.3314 113.391C33.3314 112.865 33.5722 112.496 34.102 112.496H42.5312C42.9647 112.496 43.2537 112.865 43.2537 113.339V127.506C43.2537 129.929 44.506 132.72 48.4075 132.72C52.1645 132.72 54.1394 130.139 54.1394 124.925V123.819L58.1372 132.141L58.667 134.985C58.667 134.985 54.7174 139.145 47.5887 139.145C44.0725 139.145 33.2832 138.513 33.2832 125.663V113.391H33.3314ZM33.2832 103.49C33.2832 100.541 35.2099 98.1179 38.2925 98.1179C41.5679 98.1179 43.3019 100.646 43.3019 103.648C43.3019 106.913 41.0862 108.915 38.3407 108.915C35.3062 108.915 33.2832 106.65 33.2832 103.49Z" fill="white"/>
<path d="M125.33 139.303C121.573 139.303 119.116 138.829 115.937 137.881C115.118 137.618 114.781 137.355 114.781 136.407C114.781 135.459 115.118 133.405 115.407 132.72C115.745 131.983 115.841 131.825 116.371 131.825C117.238 131.825 120.031 133.247 124.944 133.247C128.316 133.247 129.424 132.457 130.098 131.719C130.58 131.14 130.917 130.192 130.917 129.139C130.917 128.296 130.773 127.243 130.098 126.558C127.834 124.241 120.609 123.819 117.719 120.554C115.745 118.447 115.311 115.603 115.311 113.707C115.311 110.547 116.371 108.335 117.816 106.755C120.08 104.227 123.837 103.49 127.497 103.49C132.218 103.49 135.926 104.754 135.926 104.754L135.348 110.705C135.348 110.705 131.254 109.547 127.883 109.547C123.355 109.547 122.247 111.495 122.247 113.391C122.247 114.287 122.536 115.024 123.066 115.603C125.041 117.868 132.266 117.973 135.348 121.397C137.227 123.451 137.805 126.031 137.805 128.612C137.805 131.614 137.034 134.195 135.252 136.196C133.085 138.513 129.52 139.303 125.33 139.303Z" fill="white"/>
<path d="M141.562 104.017V137.513C141.562 138.829 142.622 139.093 144.934 139.093C147.246 139.093 148.257 138.724 148.257 137.513V127.506H154.712C158.854 127.506 161.888 126.295 163.671 124.346C165.742 121.923 166.464 118.974 166.464 115.603C166.464 111.706 165.645 109.389 163.911 107.335C161.503 104.596 157.746 103.964 153.989 103.964H141.562V104.017ZM148.305 110.021H154.374C155.819 110.021 157.313 110.442 158.228 111.443C159.191 112.496 159.528 113.865 159.528 115.867C159.528 117.657 159.095 119.185 158.228 120.133C157.313 121.133 155.916 121.607 153.652 121.607H148.305V110.021Z" fill="white"/>
<path d="M184.334 103.542C179.758 103.542 176.049 105.122 173.833 107.703C171.618 110.284 169.739 113.865 169.739 121.502C169.739 126.979 170.654 131.508 173.833 135.248C176.097 137.881 179.421 139.356 184.43 139.356C188.717 139.356 192.137 138.302 194.93 135.142C197.82 131.772 198.928 127.19 198.928 121.502C198.928 115.972 197.869 111.074 194.882 107.808C193.004 105.596 189.825 103.542 184.334 103.542ZM184.382 109.704C186.501 109.704 188.091 110.336 189.584 111.916C191.414 113.812 192.04 117.552 192.04 121.449C192.04 125.03 191.559 128.717 189.584 131.034C188.621 132.035 186.983 133.246 184.382 133.246C181.925 133.246 180.336 132.351 179.18 131.192C176.916 128.77 176.627 124.504 176.627 121.396C176.627 117.288 177.205 114.023 179.18 111.758C180.432 110.494 182.359 109.704 184.382 109.704Z" fill="white"/>
<path d="M202.493 104.017V137.249C202.493 138.619 202.974 139.093 205.864 139.093C208.851 139.093 209.188 138.671 209.188 137.249V126.137H213.667L219.544 136.881C219.833 137.46 220.17 138.039 220.363 138.25C221.037 138.987 222.53 139.145 224.168 139.145C226.913 139.145 227.539 138.619 227.539 138.197C227.539 137.881 227.491 137.618 227.058 136.933L220.314 125.505C220.314 125.505 222.964 124.662 224.409 122.924C226.721 120.343 227.202 117.183 227.202 114.866C227.202 111.495 226.383 108.915 224.794 107.177C222.337 104.596 219.255 104.069 214.92 104.069H202.493V104.017ZM209.188 110.021H215.401C216.991 110.021 218.243 110.337 219.11 111.232C219.929 112.127 220.218 113.181 220.218 114.813C220.218 116.551 219.881 117.921 219.158 118.763C218.436 119.553 217.039 120.133 215.45 120.133H209.188V110.021Z" fill="white"/>
<path d="M243.049 139.093C240.159 139.093 239.677 138.619 239.677 137.249V110.021H230.237V104.017H255.861V110.021H246.421V137.249C246.373 138.671 245.843 139.093 243.049 139.093Z" fill="white"/>
</svg>
