<svg width="260" height="113" viewBox="0 0 260 113" fill="none" xmlns="http://www.w3.org/2000/svg">
<rect y="54.5" width="260" height="3" fill="black"/>
<rect x="202.5" width="3" height="113" fill="black"/>
<path d="M230.256 55.0603C231.273 55.3113 232.27 55.5424 233.228 55.7538C232.391 55.9043 231.525 56.0711 230.64 56.2556C227.403 56.9305 223.894 57.848 220.702 59.0831C217.533 60.3092 214.552 61.8945 212.48 63.9667C210.411 66.0359 208.788 69.0511 207.506 72.2706C206.214 75.5155 205.22 79.0967 204.468 82.4076C204.3 83.1464 204.144 83.8734 203.999 84.5818C203.867 83.8566 203.724 83.1124 203.569 82.356C202.887 79.0315 201.969 75.4416 200.751 72.2045C199.544 68.9963 197.989 65.9933 195.962 63.9667C193.936 61.9403 190.93 60.383 187.718 59.1712C184.477 57.9484 180.882 57.0252 177.551 56.3373C176.556 56.1317 175.582 55.9465 174.644 55.7803C175.679 55.5584 176.759 55.3146 177.862 55.0487C181.227 54.2368 184.833 53.2114 188.029 51.9645C191.184 50.7335 194.108 49.2237 195.962 47.3688C197.821 45.5099 199.288 42.6248 200.456 39.5277C201.639 36.392 202.577 32.8683 203.302 29.5868C203.564 28.4025 203.798 27.2456 204.008 26.1447C204.246 27.2517 204.512 28.4158 204.805 29.6079C205.611 32.8857 206.632 36.4047 207.878 39.5377C209.11 42.6338 210.622 45.5108 212.48 47.3688C214.338 49.2266 217.217 50.741 220.316 51.9758C223.452 53.2253 226.974 54.2502 230.256 55.0603Z" fill="white" stroke="black" stroke-width="3"/>
</svg>
