<svg width="241" height="164" viewBox="0 0 241 164" fill="none" xmlns="http://www.w3.org/2000/svg">
<path fill-rule="evenodd" clip-rule="evenodd" d="M94.2778 68.5258V88.5446H99.1993H104.121V80.8451C104.121 75.7634 104.121 72.9916 104.121 72.6836C104.275 71.9136 104.428 71.1437 104.89 70.5277C105.505 69.4498 106.582 68.9878 107.812 69.1418C109.504 69.2958 110.58 70.2197 110.888 72.2216C110.888 72.5296 110.888 75.6094 110.888 80.5371V88.3906H115.809H120.731V79.1512C120.731 71.2977 120.731 69.7578 120.577 68.9878C120.27 66.216 119.347 64.0601 117.655 62.5202C116.271 61.1343 114.579 60.3643 112.58 60.0563C111.811 59.9024 109.658 60.0563 109.042 60.2103C107.197 60.6723 105.813 61.2883 104.582 62.6742L103.813 63.2901V55.8986V48.507H98.8918H93.9702V68.5258H94.2778ZM198.86 48.815C198.552 49.431 188.555 73.6075 188.555 73.6075C188.555 73.6075 191.17 73.6075 194.4 73.6075H200.244L205.473 61.1343C208.395 54.2047 210.702 48.507 210.702 48.507C210.702 48.507 208.088 48.507 204.858 48.507H199.014L198.86 48.815ZM72.7463 60.2103C70.5931 60.5183 68.9013 61.1343 67.2096 62.2122C63.826 64.3681 61.6729 68.0639 61.0577 72.3756C60.7501 74.3775 60.9039 76.8413 61.3653 78.6892C62.5956 83.4629 65.8254 87.1587 69.9779 88.5446C71.5159 89.0066 72.1311 89.1606 73.9766 89.1606C75.3608 89.1606 75.8222 89.1606 76.2836 89.0066C78.2829 88.5446 79.6671 87.7747 80.8975 86.5427L81.5127 85.9268V87.1587V88.3906H86.2804H91.0481V74.5315V60.6723H86.2804H81.5127V61.9042V63.1362L81.0513 62.6742C79.9747 61.4423 78.4367 60.6723 76.4374 60.2103C75.8222 60.0563 75.5146 60.0563 74.2842 60.0563C73.5152 60.2103 72.9 60.2103 72.7463 60.2103ZM135.495 60.2103C132.881 60.5183 130.113 61.7502 128.113 63.2901C124.268 66.5239 122.269 71.6056 123.038 76.8413C123.807 82.693 127.959 87.1587 133.804 88.6986C135.034 89.0066 136.264 89.1606 137.802 89.1606C140.571 89.1606 142.57 88.6986 144.723 87.6207C149.03 85.4648 151.798 81.615 152.413 76.8413C152.567 75.6094 152.567 73.6075 152.413 72.5296C152.106 70.2197 151.183 67.9099 149.799 66.062C149.183 65.292 147.953 63.9061 147.184 63.2901C145.031 61.5962 142.57 60.5183 139.802 60.2103C138.725 60.0563 136.572 60.0563 135.495 60.2103ZM166.87 60.2103C164.256 60.5183 161.641 61.5962 159.642 63.2901C158.873 63.9061 157.488 65.292 157.027 66.062C155.643 67.9099 154.874 70.2197 154.412 72.5296C154.259 73.6075 154.259 75.7634 154.412 76.8413C155.335 83.0009 159.795 87.7747 165.947 89.0066C167.178 89.3146 167.793 89.3146 169.177 89.3146C171.792 89.3146 174.099 88.8526 176.252 87.6207C181.942 84.6948 185.018 78.2272 183.634 71.6056C182.404 65.446 177.482 60.9803 171.176 60.2103C170.1 60.0563 167.947 60.0563 166.87 60.2103ZM29.2217 60.8263C29.2217 60.8263 31.8362 67.1399 35.066 74.8394C38.2957 82.539 40.9103 88.8526 40.9103 88.8526C40.9103 88.8526 39.9875 91.1624 38.7571 93.9343C37.5267 96.7061 36.6039 98.862 36.6039 99.016C36.6039 99.17 38.9109 99.016 41.833 99.016H47.0621L54.9058 80.0751C59.2121 69.6038 62.7494 61.1343 62.7494 60.9803C62.7494 60.9803 61.6729 60.8263 57.5203 60.9803H52.2912L49.0615 68.9878C47.6773 73.2995 46.2932 76.9953 46.2932 76.9953C46.2932 76.9953 44.909 73.2995 43.0634 68.9878L39.9875 60.9803H34.6046C31.6824 60.8263 29.2217 60.8263 29.2217 60.8263ZM77.514 69.1418C79.5133 69.6038 81.0513 71.1437 81.6665 73.1455C81.8203 73.9155 81.8203 75.3014 81.6665 76.0714C81.2051 78.0732 79.6671 79.6132 77.6678 80.0751C76.8988 80.2291 75.5146 80.2291 74.7456 80.0751C73.0538 79.6132 71.5159 78.3812 70.9007 76.8413C70.1317 75.1474 70.4393 72.9916 71.3621 71.4517C72.7463 69.4498 75.0532 68.6798 77.514 69.1418ZM138.879 69.2958C141.032 69.6038 142.724 71.2977 143.185 73.4535C143.339 74.2235 143.339 75.4554 143.185 76.2254C142.724 78.2272 141.186 79.6131 139.34 80.2291C138.725 80.3831 137.033 80.3831 136.418 80.2291C134.88 79.7671 133.65 78.6892 132.881 77.3033C132.42 76.3794 132.42 75.9174 132.42 74.8394C132.42 73.9155 132.573 73.4535 132.881 72.6836C133.342 71.7596 133.957 70.8357 134.88 70.2197C135.803 69.2958 137.341 68.9878 138.879 69.2958ZM170.1 69.2958C171.945 69.6038 173.483 70.8357 174.099 72.5296C174.406 73.2995 174.56 73.7615 174.56 74.6855C174.56 75.7634 174.406 76.2254 174.099 77.1493C173.483 78.5352 172.099 79.6132 170.561 80.0751C169.946 80.2291 168.254 80.2291 167.639 80.0751C165.793 79.6132 164.256 78.0732 163.794 76.0714C163.64 75.3014 163.64 73.9155 163.794 73.1455C164.409 70.6817 166.562 68.9878 169.023 68.9878C169.331 69.1418 169.792 69.1418 170.1 69.2958ZM191.016 76.0714C188.094 76.3794 185.941 78.5352 185.326 81.307C185.172 82.077 185.172 83.4629 185.326 84.2329C185.941 86.6967 187.786 88.3906 190.247 89.0066C190.555 89.0066 191.17 89.1606 191.631 89.1606C193.477 89.1606 195.015 88.5446 196.245 87.3127C197.629 85.9268 198.091 84.5409 198.091 82.693C198.091 80.3831 197.014 78.3812 195.169 77.3033C193.938 76.2254 192.247 75.9174 191.016 76.0714ZM109.965 91.1624C107.966 91.7784 107.043 94.0883 108.12 95.7822C108.427 96.2441 109.042 96.8601 109.504 97.0141C109.965 97.1681 109.965 97.1681 110.888 97.1681C111.657 97.1681 111.811 97.1681 112.272 97.0141C112.887 96.7061 113.502 96.0901 113.81 95.4742C114.579 93.9343 113.81 92.0864 112.272 91.3164C111.811 91.0085 111.657 91.0085 111.042 91.0085C110.427 91.0085 110.273 91.0085 109.965 91.1624ZM101.66 91.3164C99.0455 91.7784 97.3538 93.4723 96.5848 96.2441C96.431 96.7061 96.431 97.1681 96.431 97.784V98.862H95.3544H94.2778V101.172V103.482H95.3544H96.431V109.025V114.569H99.3531H102.275V109.025V103.482H104.275H106.274V101.172V98.862H104.275H102.275V98.4C102.429 97.3221 102.89 96.5521 103.813 96.3981C104.428 96.2441 105.351 96.2441 105.966 96.5521C106.274 96.7061 106.428 96.7061 106.428 96.7061C106.428 96.7061 106.428 95.6282 106.428 94.2423V91.7784L105.966 91.6244C105.351 91.3164 104.582 91.3164 103.506 91.3164C102.737 91.1624 102.121 91.3164 101.66 91.3164ZM125.037 98.554C123.807 98.862 122.884 99.4779 122.269 100.248L121.961 100.71V99.7859V98.862H119.039H116.117V106.716V114.569H119.039H121.961V110.257C121.961 107.793 121.961 105.792 121.961 105.484C122.115 104.868 122.423 104.252 122.73 103.944C123.499 103.328 124.883 103.482 125.499 104.252C125.96 104.868 125.96 104.868 125.96 109.795V114.415H128.882H131.804V109.179C131.804 103.636 131.804 103.02 131.497 101.942C131.189 101.018 130.882 100.248 130.113 99.6319C129.497 99.016 128.882 98.554 127.959 98.4C127.19 98.4 125.652 98.4 125.037 98.554ZM139.648 98.4C138.725 98.554 137.341 99.016 136.572 99.6319C134.88 100.864 133.804 102.712 133.342 105.022C133.188 105.946 133.188 107.639 133.342 108.563C133.65 109.949 134.111 111.335 134.88 112.259C135.957 113.645 137.341 114.569 139.033 114.877C139.956 115.031 141.494 115.031 142.263 114.723C143.185 114.415 143.8 114.107 144.569 113.491L145.185 112.875V113.645V114.415H148.107H151.029V106.562V98.708H148.107H145.185V99.4779V100.248L144.723 100.094C143.954 99.3239 142.878 98.708 141.647 98.554C141.186 98.4 140.109 98.4 139.648 98.4ZM161.949 98.554C160.872 98.708 159.795 99.4779 159.18 100.248L158.873 100.556V99.6319V98.708H155.95H153.028V106.562V114.415H155.95H158.873V109.949C158.873 105.176 158.873 105.176 159.18 104.406C159.488 103.79 160.103 103.482 160.718 103.482C161.333 103.482 161.641 103.636 162.102 103.944C162.718 104.56 162.718 104.406 162.718 109.641V114.261H165.64H168.562V108.563C168.562 102.866 168.562 102.866 168.408 102.25C168.254 101.942 168.1 101.326 167.947 100.864C167.639 100.248 167.485 100.094 167.024 99.6319C166.409 99.016 165.947 98.708 165.332 98.4C164.256 98.4 163.025 98.246 161.949 98.554ZM177.174 98.554C174.56 99.016 172.561 100.248 171.33 102.404C171.023 103.02 170.715 103.79 170.407 104.56C170.254 105.33 170.254 105.484 170.254 106.716C170.254 108.101 170.254 108.563 170.715 109.641C171.638 112.259 173.791 114.261 176.713 114.877C177.174 115.031 177.636 115.031 178.712 115.031C180.25 115.031 180.866 114.877 181.942 114.415L182.557 114.107V111.489V108.871L182.096 109.179C181.327 109.641 180.866 109.795 179.943 109.795C179.02 109.795 178.559 109.795 177.943 109.487C177.328 109.179 176.867 108.717 176.559 108.101C176.405 107.639 176.405 107.639 176.405 106.869C176.405 106.254 176.405 106.1 176.559 105.638C177.021 104.406 178.097 103.79 179.635 103.636C180.712 103.636 181.173 103.636 182.711 104.406C182.711 104.406 182.711 103.174 182.711 101.788V99.17L182.25 99.016C180.558 98.4 178.712 98.246 177.174 98.554ZM190.401 98.554C185.941 99.3239 183.173 103.174 183.48 107.639C183.634 109.179 184.095 110.565 184.864 111.643C185.941 113.337 187.633 114.415 189.786 114.877C190.709 115.031 193.169 115.031 194.246 114.877C195.784 114.569 197.168 113.799 198.245 112.721C198.706 112.259 199.475 111.181 199.475 111.181C199.475 111.181 198.398 110.719 197.014 110.257L194.554 109.333L194.246 109.641C193.785 110.103 193.477 110.257 192.862 110.411C191.17 110.873 189.478 109.949 189.171 108.409V108.101H194.554H199.936V106.716C199.936 105.792 199.936 105.176 199.783 104.868C199.475 103.02 198.706 101.788 197.629 100.556C196.553 99.4779 195.323 98.862 193.631 98.554C193.016 98.4 191.17 98.4 190.401 98.554ZM107.966 106.716V114.569H110.888H113.81V106.716V98.862H110.888H107.966V106.716ZM192.708 102.866C193.169 103.02 193.323 103.174 193.785 103.482C194.092 103.79 194.4 104.098 194.4 104.56V104.868H191.785C188.863 104.868 189.017 104.868 189.324 104.252C189.786 103.174 191.17 102.558 192.708 102.866ZM143.032 103.636C143.8 103.79 144.723 104.56 145.031 105.33C145.8 107.023 145.031 109.025 143.185 109.641C142.57 109.795 141.647 109.795 141.032 109.641C140.109 109.333 139.187 108.563 139.033 107.639C138.879 107.177 138.879 107.023 138.879 106.562C138.879 105.946 138.879 105.792 139.187 105.33C139.802 103.944 141.34 103.328 143.032 103.636Z" fill="white"/>
</svg>
